<svg width="264" height="11" viewBox="0 0 264 11" fill="none" xmlns="http://www.w3.org/2000/svg">
<path d="M181.5 5.80688C181.5 6.35917 181.052 6.80688 180.5 6.80688H10.7675C10.2609 6.80688 9.7595 6.90815 9.29263 7.10472L1.77928 10.2682C1.1718 10.524 0.5 10.078 0.5 9.41883C0.5 9.04801 0.722233 8.71331 1.06399 8.56942L8.53394 5.42417C9.50155 5.01676 10.5408 4.80688 11.5907 4.80688H180.5C181.052 4.80688 181.5 5.2546 181.5 5.80688Z" fill="white" fill-opacity="0.2"/>
<path d="M82.5 5.80688C82.5 6.35917 82.9477 6.80688 83.5 6.80688H253.232C253.739 6.80688 254.24 6.90815 254.707 7.10472L262.221 10.2682C262.828 10.524 263.5 10.078 263.5 9.41883C263.5 9.04801 263.278 8.71331 262.936 8.56942L255.466 5.42417C254.498 5.01676 253.459 4.80688 252.409 4.80688H83.5C82.9477 4.80688 82.5 5.2546 82.5 5.80688Z" fill="white" fill-opacity="0.2"/>
<rect x="80.5" y="0.807129" width="103" height="10" rx="5" fill="white"/>
</svg>
