<svg width="81" height="81" viewBox="0 0 81 81" fill="none" xmlns="http://www.w3.org/2000/svg">
<path d="M40.25 0.807129C29.6413 0.807129 19.4672 5.0214 11.9657 12.5229C4.46427 20.0243 0.25 30.1985 0.25 40.8071C0.25 51.4158 4.46427 61.5899 11.9657 69.0914C19.4672 76.5929 29.6413 80.8071 40.25 80.8071C50.8587 80.8071 61.0328 76.5929 68.5343 69.0914C76.0357 61.5899 80.25 51.4158 80.25 40.8071C80.25 30.1985 76.0357 20.0243 68.5343 12.5229C61.0328 5.0214 50.8587 0.807129 40.25 0.807129ZM40.25 4.80713C45.4391 4.82077 50.564 5.95608 55.2734 8.13525L49.6562 18.7603C46.6845 17.4819 43.485 16.8176 40.25 16.8071C33.8848 16.8071 27.7803 19.3357 23.2794 23.8366C18.7786 28.3374 16.25 34.4419 16.25 40.8071C16.2533 42.4666 16.4287 44.1213 16.7734 45.7446L5.28125 49.1899C4.60977 46.4458 4.26364 43.6322 4.25 40.8071C4.25 31.2593 8.04285 22.1026 14.7942 15.3513C21.5455 8.59998 30.7022 4.80713 40.25 4.80713ZM58.8125 10.0103C62.93 12.4939 66.5082 15.7772 69.3359 19.6665L59.2422 26.1743C57.5643 23.9842 55.5214 22.0999 53.2031 20.604L58.8125 10.0103ZM40.25 20.8071C45.5543 20.8071 50.6414 22.9143 54.3921 26.665C58.1429 30.4157 60.25 35.5028 60.25 40.8071C60.25 46.1115 58.1429 51.1985 54.3921 54.9493C50.6414 58.7 45.5543 60.8071 40.25 60.8071C34.9457 60.8071 29.8586 58.7 26.1079 54.9493C22.3571 51.1985 20.25 46.1115 20.25 40.8071C20.25 35.5028 22.3571 30.4157 26.1079 26.665C29.8586 22.9143 34.9457 20.8071 40.25 20.8071ZM71.5 23.0259C74.5973 28.4413 76.2341 34.5686 76.25 40.8071C76.2445 42.1517 76.1636 43.495 76.0078 44.8306L64.1484 42.8228C64.2105 42.1526 64.2444 41.4801 64.25 40.8071C64.2465 36.8717 63.2752 32.9976 61.4219 29.5259L71.5 23.0259ZM63.4766 46.7681L75.3203 48.7759C73.9752 54.6822 71.1615 60.1537 67.1397 64.6835C63.1179 69.2133 58.0181 72.655 52.3125 74.6899L48.9219 63.1587C52.4752 61.7788 55.6488 59.5724 58.1798 56.7221C60.7108 53.8718 62.5265 50.4596 63.4766 46.7681ZM17.9375 49.5728C19.6974 54.0585 22.7669 57.9107 26.7465 60.6278C30.726 63.3449 35.4313 64.8012 40.25 64.8071C41.8745 64.8072 43.4948 64.6422 45.0859 64.3149L48.4766 75.8071C45.782 76.456 43.0215 76.7916 40.25 76.8071C32.851 76.8 25.6339 74.5131 19.5809 70.2579C13.528 66.0027 8.93317 59.9857 6.42188 53.0259L17.9375 49.5728Z" fill="white"/>
<path d="M45.7393 31.7838C45.4355 32.0939 45.4355 32.593 45.4355 33.5913V47.356C45.4355 48.3542 45.4355 48.8534 45.7393 49.1635C46.043 49.4736 46.5319 49.4736 47.5096 49.4736C48.4873 49.4736 48.9762 49.4736 49.2799 49.1635C49.5837 48.8534 49.5837 48.3542 49.5837 47.356V33.5913C49.5837 32.593 49.5837 32.0939 49.2799 31.7838C48.9762 31.4736 48.4873 31.4736 47.5096 31.4736C46.5319 31.4736 46.043 31.4736 45.7393 31.7838Z" fill="white"/>
<path d="M38.1763 36.7678C38.1763 35.7695 38.1763 35.2704 38.48 34.9602C38.7837 34.6501 39.2726 34.6501 40.2503 34.6501C41.228 34.6501 41.7169 34.6501 42.0207 34.9602C42.3244 35.2704 42.3244 35.7695 42.3244 36.7678V47.356C42.3244 48.3542 42.3244 48.8534 42.0207 49.1635C41.7169 49.4736 41.228 49.4736 40.2503 49.4736C39.2726 49.4736 38.7837 49.4736 38.48 49.1635C38.1763 48.8534 38.1763 48.3542 38.1763 47.356V36.7678Z" fill="white"/>
<path d="M31.2207 39.1955C30.917 39.5056 30.917 40.0048 30.917 41.003V47.356C30.917 48.3542 30.917 48.8534 31.2207 49.1635C31.5245 49.4736 32.0133 49.4736 32.9911 49.4736C33.9688 49.4736 34.4577 49.4736 34.7614 49.1635C35.0651 48.8534 35.0651 48.3542 35.0651 47.356V41.003C35.0651 40.0048 35.0651 39.5056 34.7614 39.1955C34.4577 38.8854 33.9688 38.8854 32.9911 38.8854C32.0133 38.8854 31.5245 38.8854 31.2207 39.1955Z" fill="white"/>
</svg>
