<svg width="81" height="81" viewBox="0 0 81 81" fill="none" xmlns="http://www.w3.org/2000/svg">
<path d="M36.0513 39.1884C36.0513 36.8215 38.0057 34.9028 40.4164 34.9028C42.8272 34.9028 44.7815 36.8215 44.7815 39.1884C44.7815 41.5552 42.8272 43.474 40.4164 43.474C38.0057 43.474 36.0513 41.5552 36.0513 39.1884Z" fill="white"/>
<path d="M24.7021 39.3341C24.7021 36.9671 26.6564 35.0484 29.0672 35.0484C31.4779 35.0484 33.4323 36.9671 33.4323 39.3341C33.4323 41.7009 31.4779 43.6197 29.0672 43.6197C26.6564 43.6197 24.7021 41.7009 24.7021 39.3341Z" fill="white"/>
<path d="M30.3767 29.7592C30.3767 27.3924 32.331 25.4736 34.7418 25.4736C37.1526 25.4736 39.1069 27.3924 39.1069 29.7592C39.1069 32.1261 37.1526 34.0448 34.7418 34.0448C32.331 34.0448 30.3767 32.1261 30.3767 29.7592Z" fill="white"/>
<path d="M41.726 29.7592C41.726 27.3924 43.6803 25.4736 46.0911 25.4736C48.5018 25.4736 50.4562 27.3924 50.4562 29.7592C50.4562 32.1261 48.5018 34.0448 46.0911 34.0448C43.6803 34.0448 41.726 32.1261 41.726 29.7592Z" fill="white"/>
<path d="M47.4006 39.3341C47.4006 36.9671 49.3549 35.0484 51.7657 35.0484C54.1764 35.0484 56.1308 36.9671 56.1308 39.3341C56.1308 41.7009 54.1764 43.6197 51.7657 43.6197C49.3549 43.6197 47.4006 41.7009 47.4006 39.3341Z" fill="white"/>
<path d="M33.4323 47.331C33.4323 46.621 34.0186 46.0453 34.7418 46.0453H46.0911C46.4383 46.0453 46.7715 46.1807 47.017 46.4219C47.2627 46.663 47.4006 46.99 47.4006 47.331C47.4006 47.331 47.4006 48.8982 47.4006 49.9024V49.9097L47.4004 49.9188L47.4001 49.9416C47.3997 49.9591 47.399 49.9807 47.398 50.0062C47.3957 50.0573 47.3915 50.1245 47.3838 50.2056C47.3685 50.3671 47.3391 50.5863 47.282 50.8447C47.1687 51.3574 46.941 52.0486 46.4782 52.7466C45.5011 54.2202 43.6443 55.4736 40.4077 55.4736C37.178 55.4736 35.3257 54.2188 34.3516 52.7451C33.8902 52.047 33.6633 51.3562 33.5504 50.8438C33.4936 50.5858 33.4642 50.3666 33.4489 50.2053C33.4413 50.1242 33.4371 50.0572 33.4349 50.0061C33.4338 49.9805 33.4331 49.9589 33.4327 49.9416L33.4324 49.9186L33.4323 49.9097L33.4323 49.9058V47.331Z" fill="white"/>
<path d="M31.9803 46.0453C31.7917 46.435 31.6862 46.8709 31.6862 47.331L31.6862 49.9162L31.6863 49.932L31.6869 49.9687L31.6871 49.9774C31.6877 50.0071 31.6888 50.0416 31.6905 50.0801C31.6939 50.1574 31.6999 50.2527 31.7103 50.3635C31.7312 50.5839 31.7702 50.8721 31.8438 51.2062C31.9892 51.8662 32.2825 52.7639 32.8869 53.6783C32.9125 53.7169 32.9384 53.7553 32.9647 53.7935C31.9705 54.2982 30.6897 54.6165 29.0585 54.6165C25.8288 54.6165 23.9765 53.3617 23.0023 51.888C22.5409 51.1899 22.314 50.4991 22.2011 49.9867C22.1443 49.7287 22.1149 49.5095 22.0997 49.3482C22.092 49.2671 22.0879 49.2 22.0856 49.149C22.0841 49.1157 22.083 49.0487 22.083 49.0487V47.331C22.083 46.621 22.6693 46.0453 23.3925 46.0453H31.9803Z" fill="white"/>
<path d="M47.8643 53.7954C48.8556 54.2989 50.1319 54.6165 51.7568 54.6165C54.9934 54.6165 56.8502 53.3631 57.8272 51.8895C58.2901 51.1915 58.5178 50.5003 58.6311 49.9876C58.6882 49.7292 58.7177 49.51 58.7331 49.3485C58.7406 49.2674 58.7448 49.2002 58.7471 49.1491C58.7483 49.1236 58.749 49.102 58.7493 49.0845L58.7497 49.0617V47.331C58.7497 46.99 58.6117 46.663 58.3662 46.4219C58.1206 46.1807 57.7876 46.0453 57.4401 46.0453H48.8517C49.044 46.4434 49.1465 46.882 49.1465 47.331V49.9231L49.1463 49.9459L49.1456 49.9776C49.1451 50.0074 49.144 50.0417 49.1423 50.0805C49.1388 50.158 49.1328 50.2534 49.1224 50.3643C49.1014 50.585 49.0621 50.8735 48.9883 51.2081C48.8421 51.8688 48.5477 52.7672 47.9413 53.6819C47.916 53.72 47.8904 53.7579 47.8643 53.7954Z" fill="white"/>
<path d="M42.8438 11.1206C42.8438 12.277 41.9063 13.2143 40.75 13.2144C39.5937 13.2144 38.6562 12.2771 38.6562 11.1206V10.3804L38.3867 10.4009C23.4503 11.5509 11.494 23.5076 10.3438 38.4438L10.3232 38.7134H11.0645C12.2206 38.7135 13.1582 39.6508 13.1582 40.8071C13.1582 41.9633 12.2206 42.9007 11.0645 42.9009H10.3232L10.3438 43.1704C11.494 58.1067 23.4503 70.0632 38.3867 71.2134L38.6562 71.2339V70.4927C38.6565 69.3365 39.5938 68.3989 40.75 68.3989C41.9061 68.399 42.8435 69.3366 42.8438 70.4927V71.2339L43.1133 71.2134C58.0496 70.0631 70.006 58.1067 71.1562 43.1704L71.1768 42.9009H70.4355C69.2793 42.9008 68.3418 41.9634 68.3418 40.8071C68.3418 39.6507 69.2793 38.7134 70.4355 38.7134H71.1768L71.1562 38.4438C70.006 23.5076 58.0496 11.551 43.1133 10.4009L42.8438 10.3804V11.1206ZM38.6562 75.4272L38.4229 75.4116C21.1487 74.2615 7.29563 60.4083 6.14551 43.1343L6.12988 42.9009H3.09375C1.93745 42.9009 1 41.9634 1 40.8071C1 39.6507 1.93744 38.7134 3.09375 38.7134H6.12988L6.14551 38.48C7.29563 21.2059 21.1487 7.35275 38.4229 6.20264L38.6562 6.18701V3.15088C38.6562 1.99443 39.5937 1.05713 40.75 1.05713C41.9063 1.05717 42.8438 1.99445 42.8438 3.15088V6.18701L43.0771 6.20264C60.3513 7.3528 74.2044 21.2059 75.3545 38.48L75.3701 38.7134H78.4062C79.5626 38.7134 80.5 39.6507 80.5 40.8071C80.5 41.9634 79.5626 42.9009 78.4062 42.9009H75.3701L75.3545 43.1343C74.2044 60.4083 60.3513 74.2615 43.0771 75.4116L42.8438 75.4272V78.4634C42.8438 79.6197 41.9063 80.5571 40.75 80.5571C39.5937 80.5571 38.6562 79.6197 38.6562 78.4634V75.4272Z" fill="white" stroke="#091622" stroke-width="0.5"/>
</svg>
