<svg width="81" height="81" viewBox="0 0 81 81" fill="none" xmlns="http://www.w3.org/2000/svg">
<path d="M20.0864 78.2531H60.4128M31.6082 60.9704C31.6082 67.0194 29.5919 74.2205 26.4234 78.2531M54.0758 78.2531C50.9073 74.2205 48.891 67.0194 48.891 60.9704M2.80371 9.12224V55.2095C2.80371 58.378 5.39612 60.9704 8.56462 60.9704H71.9346C75.1031 60.9704 77.6955 58.378 77.6955 55.2095V9.12224C77.6955 5.95374 75.1031 3.36133 71.9346 3.36133H8.56462C5.39612 3.36133 2.80371 5.95374 2.80371 9.12224Z" stroke="white" stroke-width="3.5" stroke-miterlimit="10" stroke-linecap="round" stroke-linejoin="round"/>
<path d="M35.5742 42.3219C34.6529 45.0854 32.4575 47.1156 29.2252 48.193C27.7755 48.6723 26.2634 48.9371 24.737 48.979C24.3786 48.979 24.0349 48.8366 23.7815 48.5832C23.5281 48.3298 23.3857 47.9861 23.3857 47.6277C23.4275 46.1013 23.6923 44.5892 24.1717 43.1394C25.2492 39.907 27.2793 37.7117 30.0428 36.7905C30.2111 36.7342 30.389 36.7117 30.5661 36.7242C30.7432 36.7367 30.9161 36.7839 31.0749 36.8633C31.2337 36.9426 31.3753 37.0525 31.4917 37.1866C31.608 37.3207 31.6968 37.4764 31.753 37.6448C31.8091 37.8132 31.8315 37.991 31.8189 38.1681C31.8063 38.3452 31.7589 38.5181 31.6795 38.6769C31.6001 38.8356 31.4901 38.9772 31.3559 39.0935C31.2218 39.2097 31.066 39.2984 30.8976 39.3544C27.577 40.4612 26.5485 44.0654 26.2305 46.1343C28.2984 45.8163 31.9033 44.7879 33.0101 41.4673C33.0661 41.2988 33.1548 41.143 33.2711 41.0088C33.3873 40.8746 33.5289 40.7646 33.6876 40.6851C33.8464 40.6056 34.0193 40.5582 34.1964 40.5456C34.3735 40.533 34.5514 40.5554 34.7198 40.6115C34.8883 40.6677 35.044 40.7565 35.1781 40.8728C35.3122 40.9892 35.4221 41.1308 35.5014 41.2897C35.5808 41.4485 35.628 41.6214 35.6405 41.7986C35.653 41.9757 35.6305 42.1535 35.5742 42.3219ZM52.4471 29.4727L50.9318 30.988V41.3348C50.9328 41.6898 50.8633 42.0415 50.7275 42.3695C50.5916 42.6975 50.3921 42.9954 50.1403 43.2457L44.6774 48.7088C44.3315 49.0547 43.8982 49.3003 43.4237 49.4193C42.9492 49.5383 42.4513 49.5263 41.9831 49.3845C41.5149 49.2428 41.0939 48.9766 40.7651 48.6144C40.4363 48.2521 40.212 47.8075 40.116 47.3278L38.7805 40.6498L31.7149 33.5842L25.0369 32.2485C24.5572 32.1526 24.1126 31.9283 23.7504 31.5995C23.3882 31.2707 23.122 30.8498 22.9803 30.3816C22.8385 29.9135 22.8264 29.4156 22.9454 28.9411C23.0643 28.4667 23.3098 28.0334 23.6557 27.6874L29.1187 22.2244C29.3691 21.9727 29.667 21.7731 29.995 21.6373C30.3231 21.5014 30.6748 21.4319 31.0298 21.4329H41.3765L42.8917 19.9176C47.7206 15.0889 52.6757 15.229 54.5821 15.5135C55.1544 15.5965 55.6845 15.8623 56.0934 16.2712C56.5023 16.6801 56.7681 17.2101 56.8512 17.7824C57.1357 19.6888 57.276 24.6439 52.4471 29.4727ZM25.5669 29.5984L31.937 30.8724L38.6739 24.1355H31.0298L25.5669 29.5984ZM48.2292 33.6907L41.4922 40.4277L42.7662 46.7978L48.2292 41.3348L48.2292 33.6907Z" fill="white"/>
</svg>
