<svg width="81" height="81" viewBox="0 0 81 81" fill="none" xmlns="http://www.w3.org/2000/svg">
<path d="M24.498 15.1226C25.5031 15.1256 26.3155 15.9563 26.3121 16.9777C26.3092 17.9992 25.4914 18.8248 24.4864 18.8215C23.4813 18.8181 22.6692 17.9871 22.6726 16.9656C22.6762 15.9445 23.4933 15.1195 24.498 15.1226Z" fill="white"/>
<path d="M17.9947 15.1226C18.9994 15.1259 19.8115 15.9566 19.8082 16.9778C19.8052 17.9989 18.9878 18.8238 17.9831 18.8208C16.9784 18.8174 16.1663 17.9867 16.1696 16.9656C16.1729 15.9445 16.99 15.1192 17.9947 15.1226Z" fill="white"/>
<path d="M11.4921 15.1226C12.4968 15.1259 13.3086 15.9563 13.3053 16.9774C13.302 17.9985 12.4849 18.8238 11.4802 18.8205C10.4754 18.8171 9.66369 17.9867 9.667 16.9656C9.66966 15.9445 10.4874 15.1192 11.4921 15.1226Z" fill="white"/>
<path d="M48.3145 48.9788C48.934 48.9789 49.4308 49.1389 49.8047 49.4593C50.1787 49.7799 50.3659 50.2132 50.3659 50.7581C50.3658 51.2922 50.1897 51.709 49.8372 52.0081C49.4846 52.3073 48.998 52.4567 48.3783 52.4567H45.9102V48.9788H48.3145Z" fill="white"/>
<path d="M48.1699 44.2985C48.7682 44.2985 49.2332 44.4424 49.5645 44.7308C49.9064 45.0086 50.0775 45.3991 50.0775 45.9014C50.0774 46.4142 49.9064 46.8098 49.5645 47.0876C49.2332 47.3546 48.7682 47.488 48.1699 47.488H45.9102V44.2985H48.1699Z" fill="white"/>
<path fill-rule="evenodd" clip-rule="evenodd" d="M52.7207 36.8506C54.447 36.8506 55.3107 36.8506 55.9701 37.1865C56.5499 37.482 57.0216 37.9536 57.3171 38.5335C57.653 39.1929 57.653 40.0561 57.653 41.7822V59.6605C57.653 61.3868 57.653 62.2505 57.3171 62.9098C57.0216 63.4897 56.5499 63.9614 55.9701 64.2568C55.3107 64.5928 54.447 64.5928 52.7207 64.5928H44.0898C42.3637 64.5928 41.5005 64.5928 40.8411 64.2568C40.2612 63.9614 39.7897 63.4897 39.4941 62.9098C39.1582 62.2505 39.1582 61.3868 39.1582 59.6605V41.7822C39.1582 40.0561 39.1582 39.1929 39.4941 38.5335C39.7896 37.9536 40.2612 37.482 40.8411 37.1865C41.5005 36.8506 42.3637 36.8506 44.0898 36.8506H52.7207ZM46.8646 58.9691C46.3123 58.9691 45.8646 59.4168 45.8646 59.9691C45.8648 60.5212 46.3124 60.9691 46.8646 60.9691H49.9473L50.0495 60.9639C50.5535 60.9126 50.9471 60.4866 50.9473 59.9691C50.9473 59.4514 50.5536 59.0256 50.0495 58.9743L49.9473 58.9691H46.8646ZM44.0827 42.8076V53.9476H48.5384C49.2756 53.9476 49.9222 53.8192 50.4779 53.5628C51.0334 53.2957 51.4556 52.9379 51.7441 52.4893C52.0433 52.0298 52.1934 51.5165 52.1934 50.9502C52.1934 50.2877 51.9851 49.6945 51.5684 49.1709C51.1517 48.6474 50.6439 48.3325 50.0456 48.2256C50.6226 48.0226 51.0819 47.707 51.4238 47.2796C51.7658 46.8522 51.9368 46.3179 51.9368 45.6768C51.9368 45.1425 51.798 44.6615 51.5202 44.234C51.2424 43.7959 50.8308 43.4488 50.2858 43.1924C49.7408 42.9359 49.0888 42.8076 48.3301 42.8076H44.0827Z" fill="white"/>
<path d="M34.5205 46.3519H30.8825L32.7093 41.1748L34.5205 46.3519Z" fill="white"/>
<path fill-rule="evenodd" clip-rule="evenodd" d="M36.9795 33.4736C38.7058 33.4736 39.5695 33.4736 40.2288 33.8096C40.8087 34.1051 41.2804 34.5766 41.5758 35.1566C41.9118 35.8159 41.9118 36.6791 41.9118 38.4053V56.2835C41.9118 58.0098 41.9118 58.8735 41.5758 59.5329C41.2804 60.1127 40.8087 60.5845 40.2288 60.8799C39.5695 61.2159 38.7058 61.2158 36.9795 61.2158H28.3486C26.6225 61.2158 25.7593 61.2158 25.0999 60.8799C24.52 60.5845 24.0485 60.1127 23.7529 59.5329C23.417 58.8735 23.417 58.0098 23.417 56.2835V38.4053C23.417 36.6791 23.417 35.8159 23.7529 35.1566C24.0484 34.5766 24.52 34.1051 25.0999 33.8096C25.7593 33.4736 26.6225 33.4736 28.3486 33.4736H36.9795ZM31.1234 55.5921C30.5711 55.5921 30.1234 56.0398 30.1234 56.5921C30.1235 57.1443 30.5712 57.5921 31.1234 57.5921H34.2061L34.3083 57.5869C34.8123 57.5356 35.2059 57.1097 35.2061 56.5921C35.2061 56.0744 34.8124 55.6487 34.3083 55.5973L34.2061 55.5921H31.1234ZM31.6514 38.9632L27.6605 50.1188H29.568L30.3695 47.8428H35.0335L35.835 50.1188H37.7588L33.7673 38.9632H31.6514Z" fill="white"/>
<path d="M3.45215 25.0178H78.0471M8.78548 72.8071H72.7138C75.6593 72.8071 78.0471 70.4193 78.0471 67.4738V14.1405C78.0471 11.1949 75.6593 8.80713 72.7138 8.80713H8.78548C5.83996 8.80713 3.45215 11.1949 3.45215 14.1405V67.4738C3.45215 70.4193 5.83997 72.8071 8.78548 72.8071Z" stroke="white" stroke-width="3.5" stroke-miterlimit="10" stroke-linecap="round" stroke-linejoin="round"/>
</svg>
