<svg width="480" height="87" viewBox="0 0 480 87" fill="none" xmlns="http://www.w3.org/2000/svg">
<g clip-path="url(#clip0_371_3774)">
<path d="M35.5598 85.9765C28.516 85.9765 22.3053 84.3087 16.9278 80.9726C11.6261 77.637 7.46034 72.9361 4.43077 66.8706C1.47692 60.7294 0 53.5271 0 45.263C0 36.9232 1.47692 29.7206 4.43077 23.6552C7.46034 17.5898 11.6261 12.8892 16.9278 9.55324C22.3053 6.21728 28.516 4.54932 35.5598 4.54932C41.2402 4.54932 46.3527 5.61075 50.897 7.73364C55.5171 9.85649 59.3797 12.8892 62.4852 16.8317C64.779 19.6877 66.5354 22.9781 67.755 26.7028C68.5003 28.9809 67.0523 31.3183 64.7449 31.959L58.0908 33.8065C55.5113 34.5228 52.9323 32.8304 51.9614 30.333C50.8693 27.5235 49.3026 25.2218 47.2615 23.4278C44.232 20.6983 40.2935 19.3336 35.4462 19.3336C29.6142 19.3336 24.9184 21.6081 21.3586 26.1572C17.7988 30.7062 16.0189 37.0748 16.0189 45.263C16.0189 53.3755 17.7988 59.744 21.3586 64.3686C24.9184 68.9177 29.6142 71.1922 35.4462 71.1922C40.445 71.1922 44.497 69.8275 47.6024 67.0981C49.6573 65.2421 51.2312 62.8709 52.3243 59.9857C53.2752 57.4757 55.86 55.7781 58.4441 56.4956L65.0426 58.3275C67.3681 58.9735 68.8144 61.3384 68.0521 63.6306C66.791 67.4216 65.0113 70.7759 62.7124 73.6941C59.6069 77.637 55.7444 80.6695 51.1243 82.7922C46.5799 84.9154 41.3917 85.9765 35.5598 85.9765Z" fill="#B69130"/>
<path d="M94.1468 56.9766C91.6371 56.9766 89.6029 54.9402 89.6029 52.4278V46.8553C89.6029 44.3429 91.6371 42.3063 94.1473 42.3063H112.551C117.323 42.3063 120.807 41.3965 123.004 39.5769C125.2 37.7572 126.299 35.0658 126.299 31.5023C126.299 27.8631 125.2 25.1716 123.004 23.4278C120.807 21.6082 117.323 20.6984 112.551 20.6984H94.1468C91.6371 20.6984 89.6029 18.6618 89.6029 16.1494V10.5769C89.6029 8.06449 91.6371 6.02783 94.1473 6.02783H113.688C122.776 6.02783 129.821 8.34021 134.82 12.9651C139.894 17.5141 142.431 23.6932 142.431 31.5023C142.431 39.2357 139.894 45.4148 134.82 50.0396C129.821 54.6644 122.776 56.9766 113.688 56.9766H94.1468ZM87.103 84.4981C84.5933 84.4981 82.5586 82.4619 82.5586 79.9491V10.5769C82.5586 8.06449 84.5933 6.02783 87.103 6.02783H93.8059C96.3161 6.02783 98.3503 8.06449 98.3503 10.5769V79.9491C98.3503 82.4619 96.3161 84.4981 93.8059 84.4981H87.103ZM129.073 84.4981C127.491 84.4981 126.022 83.6748 125.196 82.3243L109.969 57.4184C108.115 54.387 110.294 50.4945 113.844 50.4945H119.747C121.282 50.4945 122.714 51.2709 123.553 52.5585L139.78 77.4642C141.751 80.4904 139.582 84.4981 135.973 84.4981H129.073Z" fill="#B69130"/>
<path d="M161.38 84.4981C158.871 84.4981 156.836 82.4619 156.836 79.9491V10.5769C156.836 8.06449 158.871 6.02783 161.38 6.02783H168.083C170.593 6.02783 172.628 8.06449 172.628 10.5769V79.9491C172.628 82.4619 170.593 84.4981 168.083 84.4981H161.38ZM168.424 84.4981C165.914 84.4981 163.88 82.4619 163.88 79.9491V74.3766C163.88 71.8644 165.914 69.8276 168.424 69.8276H210.232C212.743 69.8276 214.777 71.8644 214.777 74.3766V79.9491C214.777 82.4619 212.743 84.4981 210.232 84.4981H168.424ZM168.424 51.518C165.914 51.518 163.88 49.4814 163.88 46.969V42.0788C163.88 39.5664 165.914 37.5298 168.424 37.5298H204.211C206.721 37.5298 208.755 39.5664 208.755 42.0788V46.969C208.755 49.4814 206.721 51.518 204.211 51.518H168.424ZM168.424 20.6984C165.914 20.6984 163.88 18.6618 163.88 16.1494V10.5769C163.88 8.06449 165.914 6.02783 168.424 6.02783H209.778C212.288 6.02783 214.322 8.06449 214.322 10.5769V16.1494C214.322 18.6618 212.288 20.6984 209.778 20.6984H168.424Z" fill="#B69130"/>
<path d="M320.802 84.4981C318.292 84.4981 316.258 82.4619 316.258 79.9491V10.5769C316.258 8.06449 318.292 6.02783 320.802 6.02783H327.505C330.015 6.02783 332.05 8.06449 332.05 10.5769V79.9491C332.05 82.4619 330.015 84.4981 327.505 84.4981H320.802Z" fill="#B69130"/>
<path d="M353.917 84.4981C351.407 84.4981 349.373 82.4619 349.373 79.9491V10.5769C349.373 8.06449 351.407 6.02783 353.917 6.02783H360.62C363.13 6.02783 365.165 8.06449 365.165 10.5769V79.9491C365.165 82.4619 363.13 84.4981 360.62 84.4981H353.917ZM360.961 53.7925C358.451 53.7925 356.417 51.7559 356.417 49.2435V44.3533C356.417 41.841 358.451 39.8043 360.961 39.8043H395.385C397.895 39.8043 399.929 41.841 399.929 44.3533V49.2435C399.929 51.7559 397.895 53.7925 395.385 53.7925H360.961ZM360.961 20.6984C358.451 20.6984 356.417 18.6618 356.417 16.1494V10.5769C356.417 8.06449 358.451 6.02783 360.961 6.02783H400.043C402.553 6.02783 404.587 8.06449 404.587 10.5769V16.1494C404.587 18.6618 402.553 20.6984 400.043 20.6984H360.961Z" fill="#B69130"/>
<path d="M442.686 53.5098C440.654 55.9551 436.807 55.6115 435.24 52.8448L412.565 12.8209C410.847 9.78834 413.035 6.02783 416.518 6.02783H423.751C425.409 6.02783 426.936 6.93189 427.734 8.38673L447.103 43.684C448.002 45.3228 447.808 47.3456 446.614 48.7831L442.686 53.5098ZM440.982 84.4981C438.472 84.4981 436.437 82.4619 436.437 79.9491V46.8553C436.437 44.3429 438.472 42.3063 440.982 42.3063H447.458C449.967 42.3063 452.002 44.3429 452.002 46.8553V79.9491C452.002 82.4619 449.967 84.4981 447.458 84.4981H440.982ZM453.504 52.5317C451.883 55.3808 447.876 55.6308 445.915 53.0052L442.722 48.7299C441.661 47.3097 441.521 45.4018 442.364 43.8419L461.506 8.41277C462.3 6.94338 463.834 6.02783 465.503 6.02783H472.134C475.62 6.02783 477.807 9.79476 476.083 12.8273L453.504 52.5317Z" fill="#B69130"/>
<path d="M248.269 46.9439V34.5629L246.208 35.0288C234.225 37.7374 225.715 48.3941 225.715 60.6915C225.715 75.2211 237.618 87.0002 252.133 87.0002C266.799 87.0002 278.827 75.0983 278.827 60.4169V15.2632C271.795 15.2632 266.095 20.9695 266.095 28.0086V60.4169C266.095 68.0592 259.906 74.255 252.271 74.255H251.829C244.438 74.255 238.447 68.2577 238.447 60.8593V60.1115C238.447 54.0295 242.443 48.6717 248.269 46.9439Z" fill="#B69130"/>
<path d="M281.431 40.0562V52.4372L283.492 51.9713C295.475 49.2627 303.985 38.6059 303.985 26.3087C303.985 11.7788 292.082 0 277.567 0C262.9 0 250.873 11.9018 250.873 26.5833V71.7368C257.905 71.7368 263.605 66.0306 263.605 58.9916V26.5831C263.605 18.9406 269.794 12.7452 277.429 12.7452H277.871C285.262 12.7452 291.253 18.7425 291.253 26.1407V26.8884C291.253 32.9706 287.256 38.3283 281.431 40.0562Z" fill="#B69130"/>
</g>
<defs>
<clipPath id="clip0_371_3774">
<rect width="480" height="87" fill="white"/>
</clipPath>
</defs>
</svg>
