<svg width="276" height="87" viewBox="0 0 276 87" fill="none" xmlns="http://www.w3.org/2000/svg">
<g clip-path="url(#clip0_371_3783)">
<path d="M0 12.0187V75.9198L254.282 87L276 0L0 12.0187Z" fill="#C30040"/>
<path d="M231.003 32.1338C230.821 32.0732 230.199 31.9656 229.916 31.9353C229.63 31.905 229.355 31.8916 229.085 31.8916C227.676 31.8916 226.468 32.2515 225.462 32.9713C224.456 33.6912 223.594 34.6196 222.874 35.7599H222.784C222.814 35.5513 223.113 33.412 223.144 33.1294C223.174 32.8435 223.187 32.6282 223.187 32.4769H215.839C215.779 33.1967 211.97 54.8828 211.97 54.8828H219.678L221.704 43.3653C221.794 42.9146 221.953 42.3898 222.175 41.7911C222.4 41.1924 222.743 40.6272 223.211 40.1025C223.675 39.5778 224.267 39.1337 224.987 38.7738C225.674 38.4307 226.518 38.2625 227.507 38.2457V38.2423C227.507 38.2423 227.78 38.239 227.847 38.2423H229.482L231.003 32.1338ZM210.409 43.1568C210.513 42.3327 210.567 41.6498 210.567 41.1083C210.567 39.5778 210.328 38.2289 209.847 37.0583C209.366 35.8877 208.693 34.9055 207.821 34.1117C206.95 33.3178 205.91 32.709 204.692 32.2885C203.478 31.868 202.135 31.6595 200.665 31.6595C198.683 31.6595 196.87 32.0127 195.221 32.7157C193.573 33.4221 192.153 34.3875 190.968 35.6186C189.784 36.8498 188.852 38.2962 188.179 39.9612C187.503 41.6263 187.167 43.4192 187.167 45.3365C187.167 46.9578 187.453 48.3975 188.021 49.6555C188.59 50.9136 189.37 51.9732 190.359 52.8276C191.349 53.682 192.513 54.3278 193.849 54.7617C195.184 55.1956 196.631 55.4143 198.192 55.4143C200.231 55.4143 202.135 55.0779 203.908 54.4018C208.239 52.5114 209.574 48.5455 209.574 48.5455L203.259 48.522C202.896 48.781 202.341 49.1409 201.937 49.336C201.076 49.7531 199.908 49.8338 198.778 49.8338C198.155 49.8338 197.553 49.7464 196.974 49.5681C196.395 49.3898 195.874 49.1308 195.416 48.7877C194.955 48.448 194.585 48.0309 194.303 47.5397C194.02 47.0486 193.879 46.4936 193.879 45.868C193.879 45.72 193.892 45.5854 193.923 45.4677H209.985C210.16 44.7546 210.304 43.9843 210.409 43.1568ZM204.097 40.6205C204.097 40.7685 204.08 40.9165 204.053 41.0645H194.431C194.548 40.5902 194.757 40.0991 195.053 39.5946C195.349 39.09 196.21 38.2121 196.21 38.2121C196.685 37.7983 197.243 37.4485 197.883 37.1659C198.522 36.8834 199.242 36.7421 200.043 36.7421C201.348 36.7421 202.351 37.0684 203.051 37.721C203.747 38.3735 204.097 39.1909 204.097 40.1698C204.097 40.3245 204.097 40.4725 204.097 40.6205ZM185.861 28.9147L187.025 22.5404H180.246L179.071 28.9147H185.861ZM185.649 32.4769H178.15L174.233 54.8828H181.642L185.649 32.4769ZM174.509 38.2457L175.64 32.0699C175.458 32.0093 175.226 31.9656 174.943 31.9353C174.657 31.905 174.381 31.8916 174.109 31.8916C172.699 31.8916 171.491 32.2515 170.485 32.9713C169.479 33.6912 168.618 34.6196 167.898 35.7599H167.807C167.837 35.5513 168.211 32.6249 168.211 32.4769H161.371C161.31 33.1967 157.501 54.8828 157.501 54.8828H164.701L166.727 43.3653C166.818 42.9146 166.976 42.3898 167.198 41.7911C167.423 41.1924 167.767 40.6272 168.234 40.1025C168.699 39.5778 169.291 39.1337 170.011 38.7738C170.67 38.4442 171.481 38.2861 172.416 38.2558V38.2423C172.416 38.2423 172.803 38.239 172.871 38.2423H174.509V38.2457ZM154.467 46.053L156.818 32.4601H150.416L148.326 45.138C148.209 45.7973 148.037 47.3749 146.92 48.7911C146.543 49.2418 145.695 50.0962 143.761 50.0861C142.687 50.0794 141.94 49.7867 141.52 49.188C141.099 48.5892 140.891 47.8828 140.891 47.0722C140.891 46.7728 140.904 46.4633 140.934 46.1505C140.965 45.8343 141.005 45.5148 141.066 45.1818L143.155 32.4601H136.702L134.757 45.064C134.67 45.4845 134.612 45.8982 134.582 46.3019C133.845 50.9775 136.281 53.8703 137.99 54.6675C139.801 55.5118 140.534 55.5993 142.048 55.6733C144.76 55.8078 146.496 55.5623 147.287 55.3369C151.004 54.2908 153.06 52.5416 154.467 46.053ZM124.899 43.4662L134.834 32.4769H127.762L119.257 41.5657H119.122L122.675 22.3486H117.087L111.976 50.7858L99.0526 50.7757L112.729 32.4601H93.1411L92.6364 36.2577H104.231L89.5578 54.8828H116.777L118.668 44.1289H118.802L125.535 54.8828H131.961L124.899 43.4662ZM88.461 28.1612L88.9018 24.0507L84.7937 24.0574L84.3529 28.1679L88.461 28.1612ZM88.2524 32.4634L84.0635 32.4702L82.0045 54.8727H86.2269L88.2524 32.4634ZM79.5382 43.6042C79.5483 43.3552 79.5584 43.1198 79.5652 42.9045C79.6257 41.4076 79.444 40.0049 79.0201 38.6965C78.5962 37.388 77.9435 36.2443 77.0653 35.2654C76.1838 34.2866 75.0668 33.5096 73.7109 32.9344C72.3549 32.3625 70.7736 32.0766 68.9669 32.08C67.325 32.0833 65.784 32.376 64.3507 32.9545C62.914 33.5365 61.649 34.3404 60.5589 35.3697C59.4654 36.399 58.5973 37.6167 57.948 39.0227C57.2986 40.4254 56.942 41.9559 56.8781 43.6075C56.8108 45.2591 57.053 46.7863 57.6048 48.1889C58.1566 49.5916 58.9372 50.8026 59.9465 51.8319C60.9559 52.8578 62.1806 53.6584 63.6206 54.2336C65.0573 54.8088 66.6319 55.0914 68.341 55.088C70.2454 55.0846 72.042 54.7213 73.731 54.0015C75.42 53.2817 77.1393 51.7545 77.9367 50.7219C78.3371 50.2038 78.539 49.8675 78.539 49.8675L74.9894 49.8742C74.7808 50.2106 73.758 51.0111 73.3239 51.2701C72.0286 52.0371 70.1915 52.3735 68.4487 52.3768C67.2678 52.3802 66.1743 52.1716 65.1717 51.7512C64.169 51.3341 63.3043 50.7656 62.581 50.0491C61.8542 49.3326 61.2957 48.4951 60.9088 47.5297C60.5219 46.5643 60.3301 45.5383 60.3435 44.4451L79.4609 44.4047C79.5012 44.1188 79.5281 43.8531 79.5382 43.6042ZM76.2073 41.8819L60.4882 41.9156C60.5925 40.9804 60.8751 40.0857 61.3361 39.2246C61.797 38.3668 62.4026 37.6032 63.1529 36.9305C63.9032 36.2577 64.7612 35.7263 65.7302 35.3361C66.6992 34.9459 67.7422 34.7474 68.8592 34.744C71.2581 34.7407 73.0783 35.4134 74.3198 36.7657C75.5647 38.1213 76.1939 39.8233 76.2073 41.8819ZM51.1415 54.8862H53.7188V23.6134H51.1415V37.832H35.4796V23.6134H32.9023V54.8828H35.4796V40.2303H51.1415V54.8862ZM223.695 61.8424H33.0066V63.8102L222.08 68.5228L223.695 61.8424ZM223.524 51.7915C223.524 52.4979 223.773 53.1034 224.271 53.6046C224.772 54.1058 225.374 54.3581 226.081 54.3581C226.784 54.3581 227.38 54.1058 227.884 53.6046C228.382 53.1034 228.628 52.4979 228.628 51.7915C228.628 51.0851 228.379 50.483 227.884 49.9818C227.38 49.4773 226.784 49.2284 226.081 49.2284C225.374 49.2284 224.772 49.4806 224.271 49.9818C223.773 50.4797 223.524 51.0851 223.524 51.7915ZM223.938 51.7915C223.938 51.1995 224.146 50.6949 224.563 50.2745C224.984 49.8574 225.489 49.6455 226.077 49.6455C226.666 49.6455 227.171 49.8574 227.588 50.2745C228.005 50.6949 228.214 51.1995 228.214 51.7915C228.214 52.3869 228.005 52.8948 227.588 53.3119C227.171 53.7324 226.67 53.941 226.077 53.941C225.485 53.941 224.981 53.7324 224.563 53.3119C224.146 52.8915 223.938 52.3869 223.938 51.7915ZM225.977 50.1769H225.172V53.3389H225.62V51.9799H226.074L226.875 53.3389H227.363L226.505 51.9126C226.909 51.7444 227.114 51.4585 227.114 51.0481C227.11 50.4696 226.734 50.1769 225.977 50.1769ZM225.798 50.5638H225.977C226.427 50.5638 226.656 50.7387 226.656 51.0851C226.656 51.2971 226.606 51.4383 226.505 51.5157C226.404 51.5897 226.205 51.6267 225.916 51.6267C225.754 51.6267 225.657 51.6233 225.62 51.62V50.5705L225.798 50.5638Z" fill="white"/>
</g>
<defs>
<clipPath id="clip0_371_3783">
<rect width="276" height="87" fill="white"/>
</clipPath>
</defs>
</svg>
