<svg width="464" height="87" viewBox="0 0 464 87" fill="none" xmlns="http://www.w3.org/2000/svg">
<g clip-path="url(#clip0_371_3787)">
<path d="M253.517 2.08789H18.6172V67.9759H253.517V2.08789Z" fill="#FF6600"/>
<path d="M311.17 2.08789L303.514 67.9759H282.112C280.14 57.8259 278.4 46.3419 276.95 33.4079C276.254 38.9179 274.688 50.4599 272.194 67.9759H250.908L243.252 2.08789H259.898L261.696 25.1139L263.436 47.3279C264.074 35.8439 265.64 20.7639 268.192 2.08789H285.998C286.23 4.00189 286.868 11.2519 287.854 23.8379L289.768 48.8939C290.754 32.9439 292.32 17.3419 294.524 2.08789H311.17Z" fill="#BABABA"/>
<path d="M314.592 2.08789H343.186V15.2539H331.76V27.7239H342.49V40.2519H331.76V54.7519H344.346V67.9179H314.65V2.08789H314.592Z" fill="#BABABA"/>
<path d="M349.219 2.08789H361.341C369.403 2.08789 374.913 2.37789 377.755 3.01589C380.597 3.65389 382.975 5.21989 384.773 7.77189C386.571 10.3239 387.499 14.4419 387.499 20.0679C387.499 25.1719 386.861 28.6519 385.585 30.3919C384.309 32.1319 381.815 33.2339 378.045 33.5819C381.409 34.4519 383.729 35.5539 384.889 36.9459C386.049 38.3379 386.803 39.6719 387.093 40.8319C387.383 41.9919 387.499 45.2399 387.499 50.5759V67.9759H371.607V46.1099C371.607 42.5719 371.317 40.3679 370.795 39.5559C370.215 38.7439 368.765 38.2799 366.445 38.2799V67.9759H349.277V2.08789H349.219ZM366.387 13.3979V28.0719C368.301 28.0719 369.693 27.7819 370.447 27.2599C371.201 26.7379 371.607 24.9979 371.607 22.0979V18.5019C371.607 16.4139 371.259 15.0219 370.505 14.3839C369.751 13.7459 368.359 13.3979 366.387 13.3979Z" fill="#BABABA"/>
<path d="M428.679 2.08789V15.2539H418.529V67.9759H401.361V15.3119H391.211V2.08789H428.679Z" fill="#BABABA"/>
<path d="M66.4675 49.3L68.4395 48.952L71.7455 49.3L74.4135 48.952H76.7335L78.3575 49.3L78.0095 50.924L74.0655 51.91L66.7575 52.896L64.1475 53.244L61.4795 54.23L60.4935 53.882L59.5075 54.578L52.6055 55.912L49.9955 56.898L44.0795 59.856V60.204L42.7455 61.19H42.3975L41.4115 61.828L41.0635 62.466L40.4255 62.814V64.09H40.0775L37.7575 64.786L36.1335 66.062H34.5095L32.8855 66.41L32.1895 66.062V65.076L33.8135 64.09H34.5095L34.8575 63.742V61.77L36.4815 59.798L41.0635 57.478L42.0495 56.84L44.3695 54.23L45.7035 54.578L47.0375 53.882L51.9675 51.562L55.2735 50.924L57.5935 50.576L58.5795 50.924L60.2035 49.938H60.5515L61.1895 50.286L63.1615 49.648L66.4675 49.3ZM49.7055 0.869973V0.521973H50.6915V0.869973L51.0395 1.21797L52.3735 1.56597L52.7215 5.16197L51.7355 6.49597L52.0835 8.81597L52.4315 9.45397L51.7935 12.76L52.1415 14.094L52.4895 18.386V20.3L51.5035 21.634L51.8515 22.91L52.4895 23.606V26.912H52.8375L53.1855 26.564L53.8815 26.912L53.5335 27.898L52.5475 27.55L52.1995 28.536H51.8515L50.5175 28.884L49.1835 28.188L49.5315 27.202L50.2275 25.868L50.5755 25.52V24.534L49.5895 23.2L49.9375 22.214H49.5895L48.6035 23.2L48.9515 23.548L48.6035 29.464L48.2555 30.798H47.6175L47.2695 30.16V29.812H46.9215L46.3995 30.218L46.0515 34.8V41.064L45.4135 41.412L45.7615 42.398L45.1235 43.674L45.7615 44.66L46.1095 47.618L43.1515 49.3L41.5275 47.676L41.1795 46.69L41.5275 46.052L42.1655 46.4L42.5135 47.038H42.8615L43.2095 46.69V45.704L43.8475 43.384L43.2095 42.746L44.1955 40.426L43.5575 39.788H42.8615L42.1075 39.44L41.1215 37.468L41.4695 35.844H42.4555L43.1515 37.468H43.4995V32.828L42.4555 34.8L41.1215 35.148L40.7735 34.8L41.1215 32.19L41.4695 31.494L41.1215 31.146V30.16H41.8175L42.1655 30.508V31.146L42.5135 30.798V30.45H43.2095L43.5575 31.088L44.1955 30.102L44.5435 28.072H43.9055L42.9195 29.696L41.6435 27.724L42.2815 24.766V24.418L43.2675 23.084L42.9195 21.46L43.6155 19.43V13.862L43.9635 11.252V9.91797L44.3115 9.56997V9.22197L43.3255 9.56997L42.7455 8.11997L45.4135 4.11797L47.0375 4.81397L47.3855 4.46597L46.7475 2.84197L47.7335 1.85597L49.7055 0.869973ZM43.7895 49.648L44.7755 49.3L46.8055 50.576V51.91L46.1095 52.896L44.4855 52.548L43.2095 50.518L43.5575 49.88L43.7895 49.648Z" fill="white"/>
<path d="M90.7699 29.464L93.4379 26.854L94.4239 27.202H94.7719V28.536L94.0759 30.856L93.4379 31.842L93.0899 32.538L92.1039 33.872V34.51L91.1179 35.844L90.5379 37.41L89.4939 38.454V41.76L89.1459 43.384L88.1599 44.08V45.066L89.4359 45.298L91.9879 42.688L93.9599 40.136L93.7859 37.758L94.8879 37.062L95.2359 32.886L95.0619 31.494L96.3959 29.522L98.4259 26.97L100.224 27.55L101.384 28.246V30.566L100.398 31.204V31.552L100.746 32.886L100.108 33.524L99.4119 36.482L97.7879 37.816L96.8019 39.788L96.1639 40.426L95.4099 42.05L96.7439 41.586L97.7879 40.774L98.7159 40.078L100.108 39.73L102.312 38.222L104.052 37.41L104.98 36.54L106.952 35.438L108.46 34.51L110.78 34.104L109.794 36.018L108.75 37.12L107.358 37.816L105.792 39.034L104.98 40.02L102.022 41.354L101.674 41.992L98.9479 42.34L98.0779 43.616L96.7439 44.602L95.1779 45.298L92.1039 47.56L90.1319 48.198L88.5079 49.822V51.446L88.1599 51.794H87.8119V52.2L88.4499 54.462L89.0299 55.97L89.7839 56.84L91.7559 57.188L93.3799 56.724L93.9599 55.796L95.1199 55.448L95.7579 54.984L97.3819 54.752L99.2959 53.592L101.326 51.62L101.964 51.388L105.038 49.416L107.01 47.154L108.924 45.356L110.2 45.008L110.606 46.748L108.228 49.242L105.038 51.91L102.718 53.186L102.37 54.23L100.05 56.26L98.4259 57.246L95.7579 57.594L95.4099 58.58V59.566L93.4379 59.914L92.1039 60.9H91.1179L86.3039 61.596L83.6359 59.798L83.1719 57.304L82.5339 56.318V53.998L82.1859 53.012L82.5339 52.316V51.968L81.8379 50.344L82.5339 47.386V45.24L83.5199 43.268L83.8679 40.948L84.2159 40.6L85.4919 37.932L86.4779 34.626L89.0879 31.03L90.0739 30.392V29.696L90.7699 29.464Z" fill="white"/>
<path d="M126.904 -0.116219L129.862 -3.07422H131.486L132.124 -2.08822L131.486 2.20378L130.79 2.55178L130.152 7.19178L128.818 9.85978L128.18 10.4398L127.194 13.3978L126.556 16.0078L126.208 16.3558V17.3418L125.512 17.9798V18.3278L125.86 18.6758L124.584 25.2878L123.598 25.6358V25.9838L124.294 27.6078L123.946 27.9558V29.9278L123.308 31.8998L122.67 34.2198L121.974 36.1918V38.8598L122.322 39.4978L121.336 40.4838V43.7898L120.64 45.1238L120.002 49.7638H120.35V50.7498L119.364 51.4458L120.002 52.4318L120.35 52.7798V61.3638L120.698 61.7118L122.322 61.3638L123.656 56.7238V55.7378L124.352 55.0998V53.1278L125.338 52.7798L125.686 52.4318L127.31 48.1398V46.9798L128.006 46.3418H128.644L129.282 44.0218L129.978 43.0358L130.964 40.3678L131.95 39.3818H132.936L133.922 36.4238L135.894 35.4378V34.1038L137.518 32.4798L139.838 29.5218L145.754 23.2578H148.074L148.77 23.9538L148.422 26.2738L147.726 27.8978L147.088 31.2038L145 38.8018L144.014 43.0938L143.376 44.4278L143.724 45.4138L143.376 47.4438L145.348 47.0958L146.334 46.1098L147.668 46.4578H148.016L149.35 45.1238H149.988L151.612 43.7898L154.918 42.8038H155.266L154.918 45.1238L153.294 45.8198L150.974 46.4578L149.64 47.4438L149.292 48.0818L144.652 49.4158H143.376L142.68 50.6918L141.056 51.6778V54.6358L140.708 55.9698L139.084 59.9138L136.474 61.8858L133.806 62.2918L128.876 59.6238L127.252 57.5938H125.28L124.932 57.9418L125.28 59.2178L124.642 59.9138L123.946 61.2478L123.308 63.5678L122.96 66.5258L120.292 68.4978L119.944 69.1358L117.276 70.1218L116.928 69.4258V67.4538L115.942 63.5098L115.594 60.5518L115.246 59.5658L115.594 57.5358L116.87 55.9118V55.5638L115.884 54.2878L116.87 51.9678L115.884 49.9958L117.16 47.0378L116.522 46.3998L117.16 45.0658L118.784 43.7318L118.146 42.1078L119.132 38.1638L118.436 35.8438V35.4958L119.422 34.7998L119.074 33.8138L120.06 32.4798L119.712 31.4938L118.088 30.5078V30.1598L118.726 29.8118H119.712L120.698 28.1878L120.35 26.5638L119.712 24.2438L120.35 21.9238L120.002 19.6038L121.336 18.9658V16.9938H121.684V15.6598L123.018 14.0358L122.38 13.0498H122.032V11.7158L122.38 11.3678H122.728L122.38 10.0338L123.018 9.33778L123.366 7.71378V7.36578L123.018 6.08978L123.656 4.75578L124.004 3.42178L125.628 0.463781L126.904 -0.116219ZM140.418 32.5378L140.07 32.8858L138.736 34.5098L133.806 41.7598L131.196 46.6898L128.528 50.2858L128.876 51.2718L128.528 51.6198V51.9678L134.096 50.9818L138.098 49.6478L138.446 47.6758L138.098 46.6898L139.084 44.3698V41.4118L140.708 33.4658V32.8278L140.418 32.5378ZM135.778 53.9398H134.792L133.458 56.2598L134.444 57.5358H134.792L135.778 56.2598L136.474 55.5638L135.778 53.9398Z" fill="white"/>
<path d="M164.778 29.464L167.446 26.854L168.432 27.202H168.78V28.536L168.084 30.856L167.446 31.842L167.098 32.538L166.112 33.872V34.51L165.126 35.844L164.546 37.41L163.502 38.454V41.76L163.154 43.384L162.168 44.08V45.066L163.444 45.298L165.996 42.688L167.968 40.136L167.794 37.758L168.896 37.062L169.244 32.886L169.07 31.494L170.404 29.522L172.434 26.97L174.232 27.55L175.392 28.246V30.566L174.406 31.204V31.552L174.754 32.886L174.116 33.524L173.42 36.482L171.68 37.7L170.694 39.672L170.056 40.31L169.302 41.934L170.636 41.47L171.68 40.658L172.608 39.962L174 39.614L176.204 38.106L177.944 37.294L178.872 36.424L180.844 35.322L182.352 34.394L184.672 33.988L183.686 35.902L182.642 37.004L181.25 37.7L179.684 38.918L179.046 39.904L176.088 41.238L175.74 41.876L173.014 42.224L172.144 43.5L170.81 44.486L169.244 45.182L166.17 47.444L164.198 48.082L162.574 49.706V51.33L162.226 51.678H161.82V52.2L162.458 54.462L163.038 55.97L163.792 56.84L165.764 57.188L167.388 56.724L167.968 55.796L169.128 55.448L169.766 54.984L171.39 54.752L173.304 53.592L175.334 51.62L175.972 51.388L179.046 49.416L181.018 47.154L182.932 45.356L184.208 45.008L184.614 46.748L182.236 49.242L179.046 51.91L176.726 53.186L176.378 54.23L174.058 56.26L172.434 57.246L169.766 57.594L169.418 58.58V59.566L167.446 59.914L166.112 60.9H165.126L160.312 61.596L157.644 59.798L157.18 57.304L156.542 56.318V53.998L156.194 53.012L156.542 52.316V51.968L155.846 50.344L156.542 47.386V45.24L157.528 43.268L157.876 40.948L158.224 40.6L159.5 37.932L160.486 34.626L163.096 31.03L164.082 30.392V29.696L164.778 29.464Z" fill="white"/>
<path d="M194.009 35.0316V34.6836H194.996L195.633 37.3516V39.6716L194.299 40.6576V41.6436L195.286 43.6156V44.6016L194.589 46.5736L195.286 47.5596L194.937 51.1556L195.923 53.1276L202.536 48.1976L207.466 45.5876H208.451L211.409 42.9196L214.077 40.5996L215.411 40.9476V41.2956L215.759 42.9196L217.383 45.5876L217.731 47.5596L218.369 49.1836L219.703 51.5036H220.341L221.327 50.5176L223.763 49.7636L225.561 48.5456L228.519 47.3276L230.491 45.9936L231.826 46.9796L229.506 50.1696L227.186 51.1556L219.936 56.0856H217.616L217.267 56.4336L216.571 57.4196L213.613 58.7536H212.917L211.583 57.1296V55.7956H211.236L210.887 55.4476L210.539 51.5036L208.219 49.5316L204.913 51.1556H204.217L202.246 52.4896L199.926 54.4616L197.257 56.0856L195.923 57.3616L194.937 57.7096L191.631 60.0296L188.326 62.0016L187.688 61.6536V57.0136L188.036 55.0416L189.079 54.5196V53.5336L190.066 52.5476L189.369 50.2276L189.717 48.8936L189.369 46.5736L190.066 44.6016L189.369 43.9636L191.399 39.0336L194.009 35.0316Z" fill="white"/>
<path d="M253.576 22.6199L254.794 22.2139L256.766 22.5619L258.042 23.2579L259.144 24.1859L259.782 25.7519L260.13 27.7819L259.55 28.5359L259.144 29.4059V31.0299L257.346 32.8279L255.78 33.8139L254.62 33.5819L254.272 32.7119L255.2 31.8419V30.6819L254.446 29.8119L253.112 29.9859L251.894 30.9719L251.198 33.2919L250.734 34.4519L250.56 35.7859L250.618 37.1199L250.27 39.0919L250.212 42.8619L249.226 44.4859L249.864 46.1099L250.038 47.4439L249.864 49.0679L250.212 51.3879V53.7079L249.864 54.4039L250.56 59.3339L249.864 59.9719V60.3199L250.85 61.3059L250.212 62.5819L249.864 62.9299H249.226L247.892 64.5539L246.616 63.8579L246.268 64.2059L246.616 65.5399L246.268 65.8879L244.644 65.5399V63.9159L244.296 63.5679H243.6L242.904 64.5539L241.918 64.2059L240.294 63.8579L238.67 62.2339L239.308 61.5959L238.96 59.6239L237.974 59.2759L235.944 59.6239L236.292 60.2619L235.944 60.6099H235.596L235.248 59.6239L233.624 58.6379H232.638V57.6519L229.68 57.3039L229.332 56.9559L232.29 53.6499L233.914 52.3739L236.234 53.0119L237.8 54.5199L239.656 55.7959H240.294L241.628 57.8259L244.586 58.4639L245.282 57.8259L244.876 56.0859L245.572 53.5339V51.9099L245.92 50.5759L245.572 49.9379L245.224 47.2699L245.862 46.6319V45.6459L246.848 42.6879L245.92 40.9479L245.746 39.6719L246.5 38.3379L246.848 37.0619L246.152 36.3659L246.732 34.5679L247.196 32.7699L247.37 31.2619V29.1159L247.834 27.7239L249.11 26.8539L249.168 25.8679L249.4 25.2299L250.096 24.8819L250.56 23.8379L252.474 22.7359L253.576 22.6199Z" fill="white"/>
<path d="M25.0565 79.8658H22.3305V78.0098C22.3305 77.4878 22.2725 77.1398 22.2145 77.0238C22.1565 76.9078 22.0405 76.8498 21.8085 76.8498C21.5765 76.8498 21.4605 76.9078 21.4025 77.0818C21.3445 77.2558 21.2865 77.6038 21.2865 78.1258V82.9978C21.2865 83.5198 21.3445 83.8678 21.4025 83.9838C21.4605 84.0998 21.5765 84.2158 21.8085 84.2158C22.0405 84.2158 22.1565 84.1578 22.2145 83.9838C22.2725 83.8098 22.3305 83.4618 22.3305 82.8818V81.5478H25.0565V81.9538C25.0565 83.0558 24.9985 83.8098 24.8245 84.2738C24.6505 84.7378 24.3025 85.1438 23.7805 85.4918C23.2585 85.8398 22.6205 86.0138 21.8085 86.0138C20.9965 86.0138 20.3585 85.8398 19.8365 85.5498C19.3145 85.2598 18.9665 84.8538 18.7925 84.3318C18.6185 83.8098 18.5605 83.0558 18.5605 82.0118V78.9378C18.5605 78.1838 18.5605 77.6038 18.6185 77.2558C18.6765 76.8498 18.8505 76.5018 19.0825 76.1538C19.3145 75.8058 19.7205 75.5158 20.1845 75.3418C20.6485 75.1678 21.1705 75.0518 21.7505 75.0518C22.5625 75.0518 23.2005 75.2258 23.7225 75.5158C24.2445 75.8058 24.5925 76.2118 24.7665 76.6758C24.9405 77.1398 24.9985 77.8938 24.9985 78.8798V79.8658H25.0565Z" fill="#BABABA"/>
<path d="M32.3636 75.2837V85.8397H29.6376V81.4317H28.8256V85.8397H26.0996V75.2837H28.8256V79.0537H29.6376V75.2837H32.3636Z" fill="#BABABA"/>
<path d="M33.4668 75.2837H38.0488V77.3717H36.1928V79.3437H37.9328V81.3737H36.1928V83.6937H38.2228V85.7817H33.4668V75.2837Z" fill="#BABABA"/>
<path d="M45.414 79.8658H42.688V78.0098C42.688 77.4878 42.63 77.1398 42.572 77.0238C42.514 76.9078 42.398 76.8498 42.166 76.8498C41.934 76.8498 41.818 76.9078 41.76 77.0818C41.702 77.2558 41.644 77.6038 41.644 78.1258V82.9978C41.644 83.5198 41.702 83.8678 41.76 83.9838C41.818 84.0998 41.934 84.2158 42.166 84.2158C42.398 84.2158 42.514 84.1578 42.572 83.9838C42.63 83.8098 42.688 83.4618 42.688 82.8818V81.5478H45.414V81.9538C45.414 83.0558 45.356 83.8098 45.182 84.2738C45.008 84.7378 44.66 85.1438 44.138 85.4918C43.616 85.8398 42.978 86.0138 42.166 86.0138C41.354 86.0138 40.716 85.8398 40.194 85.5498C39.672 85.2598 39.324 84.8538 39.15 84.3318C38.976 83.8098 38.918 83.0558 38.918 82.0118V78.9378C38.918 78.1838 38.918 77.6038 38.976 77.2558C39.034 76.8498 39.208 76.5018 39.44 76.1538C39.672 75.8058 40.078 75.5158 40.542 75.3418C41.006 75.1678 41.528 75.0518 42.108 75.0518C42.92 75.0518 43.558 75.2258 44.08 75.5158C44.602 75.8058 44.95 76.2118 45.124 76.6758C45.298 77.1398 45.356 77.8938 45.356 78.8798V79.8658H45.414Z" fill="#BABABA"/>
<path d="M52.9544 75.2837L51.3884 80.0397L53.1284 85.8397H50.2864L49.1844 81.3157V85.8397H46.4004V75.2837H49.1264V79.4017L50.3444 75.2837H52.9544Z" fill="#BABABA"/>
<path d="M53.5352 75.2837H56.3192C57.0732 75.2837 57.6532 75.3417 58.0592 75.4577C58.4652 75.5737 58.7552 75.7477 58.9872 75.9797C59.1612 76.2117 59.3352 76.4437 59.3932 76.7917C59.4512 77.0817 59.5092 77.6037 59.5092 78.2417V79.1697C59.5092 79.8657 59.4512 80.3297 59.2772 80.6197C59.1032 80.9097 58.8712 81.1417 58.5232 81.3157C58.1752 81.4897 57.6532 81.5477 57.0732 81.5477H56.3192V85.7817H53.5932V75.2837H53.5352ZM56.3192 77.0817V79.7497C56.3772 79.7497 56.4932 79.7497 56.4932 79.7497C56.7252 79.7497 56.8992 79.6917 57.0152 79.5757C57.1312 79.4597 57.1892 79.1697 57.1892 78.8217V77.9517C57.1892 77.6037 57.1312 77.3717 57.0152 77.2557C56.8992 77.1397 56.6672 77.0817 56.3192 77.0817Z" fill="#BABABA"/>
<path d="M66.5257 81.4318C66.5257 82.4758 66.5257 83.2298 66.4677 83.6938C66.4097 84.1578 66.2357 84.5638 66.0037 84.9118C65.7137 85.2598 65.3657 85.5498 64.9597 85.7238C64.5537 85.8978 63.9737 86.0138 63.3937 86.0138C62.8137 86.0138 62.3497 85.8978 61.8857 85.7238C61.4217 85.5498 61.0737 85.2598 60.7837 84.9118C60.4937 84.5638 60.3197 84.1578 60.3197 83.6938C60.3197 83.2298 60.2617 82.4758 60.2617 81.4318V79.6338C60.2617 78.5898 60.2617 77.8358 60.3197 77.3718C60.3777 76.9078 60.5517 76.5018 60.7837 76.1538C61.0737 75.8058 61.4217 75.5158 61.8277 75.3418C62.2337 75.1678 62.8137 75.0518 63.3937 75.0518C63.9737 75.0518 64.4377 75.1678 64.9017 75.3418C65.3657 75.5158 65.7137 75.8058 66.0037 76.1538C66.2937 76.5018 66.4677 76.9078 66.4677 77.3718C66.4677 77.8358 66.5257 78.5898 66.5257 79.6338V81.4318ZM63.7417 77.9518C63.7417 77.4878 63.7417 77.1398 63.6837 77.0238C63.6257 76.9078 63.5097 76.7918 63.3357 76.7918C63.2197 76.7918 63.1037 76.8498 62.9877 76.9658C62.9297 77.0818 62.8717 77.4298 62.8717 77.9518V82.8818C62.8717 83.5198 62.8717 83.8678 62.9297 84.0418C62.9877 84.1578 63.1037 84.2738 63.2777 84.2738C63.4517 84.2738 63.5677 84.2158 63.6257 84.0418C63.6837 83.8678 63.6837 83.4618 63.6837 82.8818V77.9518H63.7417Z" fill="#BABABA"/>
<path d="M70.2963 75.2837V85.8397H67.5703V75.2837H70.2963Z" fill="#BABABA"/>
<path d="M77.4878 75.2837V85.8397H75.1098L73.6598 81.0257V85.8397H71.3398V75.2837H73.6598L75.2258 80.0397V75.2837H77.4878Z" fill="#BABABA"/>
<path d="M84.101 75.2837V77.3717H82.477V85.7817H79.751V77.3717H78.127V75.2837H84.101Z" fill="#BABABA"/>
<path d="M90.2495 80.562V82.36H86.7695V80.562H90.2495Z" fill="#BABABA"/>
<path d="M96.1069 75.2841V83.6941H97.7889V85.7821H93.3809V75.2261H96.1069V75.2841Z" fill="#BABABA"/>
<path d="M101.21 75.2837V85.8397H98.4844V75.2837H101.21Z" fill="#BABABA"/>
<path d="M108.693 79.8658H105.967V78.0098C105.967 77.4878 105.909 77.1398 105.851 77.0238C105.793 76.9078 105.677 76.8498 105.445 76.8498C105.213 76.8498 105.097 76.9078 105.039 77.0818C104.981 77.2558 104.923 77.6038 104.923 78.1258V82.9978C104.923 83.5198 104.981 83.8678 105.039 83.9838C105.097 84.0998 105.213 84.2158 105.445 84.2158C105.677 84.2158 105.793 84.1578 105.851 83.9838C105.909 83.8098 105.967 83.4618 105.967 82.8818V81.5478H108.693V81.9538C108.693 83.0558 108.635 83.8098 108.461 84.2738C108.287 84.7378 107.939 85.1438 107.417 85.4918C106.895 85.8398 106.257 86.0138 105.445 86.0138C104.633 86.0138 103.995 85.8398 103.473 85.5498C102.951 85.2598 102.603 84.8538 102.429 84.3318C102.255 83.8098 102.197 83.0558 102.197 82.0118V78.9378C102.197 78.1838 102.197 77.6038 102.255 77.2558C102.313 76.8498 102.487 76.5018 102.719 76.1538C102.951 75.8058 103.357 75.5158 103.821 75.3418C104.285 75.1678 104.807 75.0518 105.387 75.0518C106.199 75.0518 106.837 75.2258 107.359 75.5158C107.881 75.8058 108.229 76.2118 108.403 76.6758C108.577 77.1398 108.635 77.8938 108.635 78.8798V79.8658H108.693Z" fill="#BABABA"/>
<path d="M116 75.2837V85.8397H113.274V81.4317H112.462V85.8397H109.736V75.2837H112.462V79.0537H113.274V75.2837H116Z" fill="#BABABA"/>
<path d="M122.613 75.2837V77.3717H120.989V85.7817H118.263V77.3717H116.639V75.2837H122.613Z" fill="#BABABA"/>
<path d="M123.25 75.2837H125.976C126.846 75.2837 127.484 75.3417 127.948 75.4577C128.412 75.5737 128.76 75.8637 129.05 76.2697C129.34 76.6757 129.456 77.3137 129.456 78.2417C129.456 78.8797 129.34 79.2857 129.166 79.5177C128.992 79.7497 128.586 79.9237 128.006 80.0977C128.644 80.2137 129.05 80.5037 129.282 80.7937C129.514 81.1417 129.63 81.6637 129.63 82.3017V83.2877C129.63 83.9837 129.572 84.5057 129.398 84.8537C129.224 85.2017 128.992 85.4337 128.644 85.5497C128.296 85.6657 127.542 85.7237 126.44 85.7237H123.25V75.2837ZM125.976 77.0817V79.4017C126.092 79.4017 126.208 79.4017 126.266 79.4017C126.556 79.4017 126.73 79.3437 126.788 79.2277C126.846 79.1117 126.904 78.7057 126.904 78.0677C126.904 77.7197 126.846 77.4877 126.788 77.3717C126.73 77.2557 126.672 77.1397 126.556 77.1397C126.44 77.0817 126.266 77.0817 125.976 77.0817ZM125.976 81.0257V83.9837C126.382 83.9837 126.614 83.9257 126.73 83.8097C126.846 83.6937 126.904 83.4617 126.904 82.9977V82.0117C126.904 81.5477 126.846 81.2577 126.788 81.1997C126.73 81.1417 126.382 81.0837 125.976 81.0257Z" fill="#BABABA"/>
<path d="M133.343 75.2841V83.6941H135.025V85.7821H130.617V75.2261H133.343V75.2841Z" fill="#BABABA"/>
<path d="M138.447 75.2837V85.8397H135.721V75.2837H138.447Z" fill="#BABABA"/>
<path d="M145.928 79.8658H143.202V78.0098C143.202 77.4878 143.144 77.1398 143.086 77.0238C143.028 76.9078 142.912 76.8498 142.68 76.8498C142.448 76.8498 142.332 76.9078 142.274 77.0818C142.216 77.2558 142.158 77.6038 142.158 78.1258V82.9978C142.158 83.5198 142.216 83.8678 142.274 83.9838C142.332 84.0998 142.448 84.2158 142.68 84.2158C142.912 84.2158 143.028 84.1578 143.086 83.9838C143.144 83.8098 143.202 83.4618 143.202 82.8818V81.5478H145.928V81.9538C145.928 83.0558 145.87 83.8098 145.696 84.2738C145.522 84.7378 145.174 85.1438 144.652 85.4918C144.13 85.8398 143.492 86.0138 142.68 86.0138C141.868 86.0138 141.23 85.8398 140.708 85.5498C140.186 85.2598 139.838 84.8538 139.664 84.3318C139.49 83.8098 139.432 83.0558 139.432 82.0118V78.9378C139.432 78.1838 139.432 77.6038 139.49 77.2558C139.548 76.8498 139.722 76.5018 139.954 76.1538C140.186 75.8058 140.592 75.5158 141.056 75.3418C141.52 75.1678 142.042 75.0518 142.622 75.0518C143.434 75.0518 144.072 75.2258 144.594 75.5158C145.116 75.8058 145.464 76.2118 145.638 76.6758C145.812 77.1398 145.87 77.8938 145.87 78.8798V79.8658H145.928Z" fill="#BABABA"/>
<path d="M153.469 75.2837L151.903 80.0397L153.643 85.8397H150.801L149.699 81.3157V85.8397H146.973V75.2837H149.699V79.4017L150.917 75.2837H153.469Z" fill="#BABABA"/>
<path d="M159.558 80.562V82.36H156.078V80.562H159.558Z" fill="#BABABA"/>
<path d="M162.691 75.2837H167.331V77.3717H165.417V79.3437H167.099V81.3737H165.417V85.7817H162.691V75.2837Z" fill="#BABABA"/>
<path d="M170.753 75.2841V83.6941H172.435V85.7821H168.027V75.2261H170.753V75.2841Z" fill="#BABABA"/>
<path d="M179.336 75.2839V82.3599C179.336 83.1719 179.336 83.6939 179.278 84.0419C179.22 84.3899 179.046 84.6799 178.814 85.0279C178.582 85.3759 178.234 85.6079 177.828 85.7819C177.422 85.9559 176.9 86.0719 176.32 86.0719C175.682 86.0719 175.16 85.9559 174.638 85.7819C174.116 85.6079 173.768 85.3179 173.536 84.9699C173.304 84.6219 173.13 84.2739 173.13 83.9259C173.072 83.5779 173.072 82.7659 173.072 81.6059V75.3419H175.798V83.2299C175.798 83.6939 175.798 83.9839 175.856 84.0999C175.914 84.2159 176.03 84.2739 176.146 84.2739C176.32 84.2739 176.436 84.2159 176.494 84.0419C176.552 83.9259 176.552 83.5779 176.552 83.0559V75.2839H179.336ZM175.624 73.2539V74.9359H173.942V73.2539H175.624ZM178.466 73.2539V74.9359H176.784V73.2539H178.466Z" fill="#BABABA"/>
<path d="M186.76 79.8658H184.034V78.0098C184.034 77.4878 183.976 77.1398 183.918 77.0238C183.86 76.9078 183.744 76.8498 183.512 76.8498C183.28 76.8498 183.164 76.9078 183.106 77.0818C183.048 77.2558 182.99 77.6038 182.99 78.1258V82.9978C182.99 83.5198 183.048 83.8678 183.106 83.9838C183.164 84.0998 183.28 84.2158 183.512 84.2158C183.744 84.2158 183.86 84.1578 183.918 83.9838C183.976 83.8098 184.034 83.4618 184.034 82.8818V81.5478H186.76V81.9538C186.76 83.0558 186.702 83.8098 186.528 84.2738C186.354 84.7378 186.006 85.1438 185.484 85.4918C184.962 85.8398 184.324 86.0138 183.512 86.0138C182.7 86.0138 182.062 85.8398 181.54 85.5498C181.018 85.2598 180.67 84.8538 180.496 84.3318C180.322 83.8098 180.264 83.0558 180.264 82.0118V78.9378C180.264 78.1838 180.264 77.6038 180.322 77.2558C180.38 76.8498 180.554 76.5018 180.786 76.1538C181.018 75.8058 181.424 75.5158 181.888 75.3418C182.352 75.1678 182.874 75.0518 183.454 75.0518C184.266 75.0518 184.904 75.2258 185.426 75.5158C185.948 75.8058 186.296 76.2118 186.47 76.6758C186.644 77.1398 186.702 77.8938 186.702 78.8798V79.8658H186.76Z" fill="#BABABA"/>
<path d="M194.069 75.2837V85.8397H191.343V81.4317H190.531V85.8397H187.805V75.2837H190.531V79.0537H191.343V75.2837H194.069Z" fill="#BABABA"/>
<path d="M200.681 75.2837V77.3717H199.057V85.7817H196.331V77.3717H194.707V75.2837H200.681Z" fill="#BABABA"/>
<path d="M204.044 75.2841V83.6941H205.726V85.7821H201.318V75.2261H204.044V75.2841Z" fill="#BABABA"/>
<path d="M209.148 75.2837V85.8397H206.422V75.2837H209.148Z" fill="#BABABA"/>
<path d="M216.341 75.2837V85.8397H213.963L212.513 81.0257V85.8397H210.193V75.2837H212.513L214.079 80.0397V75.2837H216.341Z" fill="#BABABA"/>
<path d="M223.765 79.17H220.981V78.184C220.981 77.604 220.981 77.198 220.923 77.024C220.865 76.85 220.749 76.792 220.575 76.792C220.401 76.792 220.285 76.85 220.227 76.966C220.169 77.082 220.111 77.43 220.111 77.952V82.998C220.111 83.462 220.169 83.81 220.227 83.926C220.285 84.1 220.401 84.158 220.575 84.158C220.749 84.158 220.923 84.1 220.981 83.926C221.039 83.752 221.097 83.404 221.097 82.94V81.664H220.517V80.04H223.707V85.724H221.967L221.735 84.97C221.561 85.318 221.329 85.55 221.039 85.724C220.749 85.898 220.401 85.956 220.053 85.956C219.589 85.956 219.183 85.84 218.777 85.608C218.371 85.376 218.081 85.086 217.849 84.796C217.617 84.506 217.501 84.1 217.443 83.752C217.385 83.404 217.385 82.824 217.385 82.128V78.996C217.385 78.01 217.443 77.256 217.559 76.792C217.675 76.328 217.965 75.922 218.487 75.516C219.009 75.11 219.647 74.936 220.459 74.936C221.271 74.936 221.909 75.11 222.431 75.458C222.953 75.806 223.301 76.154 223.475 76.618C223.649 77.082 223.707 77.72 223.707 78.59V79.17H223.765Z" fill="#BABABA"/>
<path d="M230.608 78.4741H228.056V77.7201C228.056 77.3721 227.998 77.1401 227.94 77.0241C227.882 76.9081 227.766 76.8501 227.592 76.8501C227.418 76.8501 227.302 76.9081 227.244 77.0241C227.186 77.1401 227.128 77.3721 227.128 77.6621C227.128 78.0101 227.186 78.3001 227.244 78.4741C227.36 78.6481 227.592 78.8801 227.998 79.1121C229.216 79.8081 229.97 80.4461 230.318 80.9101C230.666 81.3741 230.782 82.1281 230.782 83.1721C230.782 83.9261 230.666 84.5061 230.492 84.8541C230.318 85.2021 229.97 85.4921 229.448 85.7241C228.926 85.9561 228.346 86.0721 227.708 86.0721C226.954 86.0721 226.374 85.9561 225.852 85.6661C225.33 85.3761 224.982 85.0281 224.808 84.6221C224.634 84.2161 224.576 83.5781 224.576 82.7661V82.0701H227.128V83.3461C227.128 83.7521 227.186 83.9841 227.244 84.1001C227.302 84.2161 227.418 84.2741 227.65 84.2741C227.882 84.2741 227.94 84.2161 228.056 84.0421C228.172 83.9261 228.172 83.6941 228.172 83.4041C228.172 82.7661 228.114 82.3601 227.94 82.1861C227.766 82.0121 227.36 81.6641 226.664 81.2001C225.968 80.7361 225.504 80.4461 225.33 80.2141C225.156 79.9821 224.924 79.7501 224.808 79.3441C224.634 78.9961 224.576 78.5321 224.576 77.9521C224.576 77.1401 224.692 76.5601 224.866 76.1541C225.098 75.8061 225.388 75.5161 225.852 75.2841C226.316 75.0521 226.896 74.9941 227.534 74.9941C228.23 74.9941 228.868 75.1101 229.332 75.3421C229.854 75.5741 230.144 75.8641 230.318 76.2121C230.492 76.5601 230.55 77.1401 230.55 78.0101V78.4741H230.608Z" fill="#BABABA"/>
<path d="M237.859 75.2837V85.8397H235.481L234.031 81.0257V85.8397H231.711V75.2837H234.031L235.597 80.0397V75.2837H237.859Z" fill="#BABABA"/>
<path d="M238.961 75.2837H243.543V77.3717H241.687V79.3437H243.427V81.3737H241.687V83.6937H243.717V85.7817H238.961V75.2837Z" fill="#BABABA"/>
<path d="M249.806 75.2837V77.3717H248.182V85.7817H245.456V77.3717H243.832V75.2837H249.806Z" fill="#BABABA"/>
<path d="M254.968 75.2837V77.3717L252.938 83.6937H254.968V85.7817H249.922V84.2737L252.01 77.3717H250.154V75.2837H254.968Z" fill="#BABABA"/>
<path d="M265.989 75.2841L264.771 85.8401H261.349C261.059 84.2161 260.769 82.3601 260.537 80.3301C260.421 81.2001 260.189 83.0561 259.783 85.8401H256.361L255.143 75.2841H257.811L258.101 78.9381L258.391 82.4761C258.507 80.6201 258.739 78.2421 259.145 75.2261H261.987C262.045 75.5161 262.103 76.6761 262.277 78.7061L262.567 82.7081C262.741 80.1561 262.973 77.6621 263.321 75.2261H265.989V75.2841Z" fill="#BABABA"/>
<path d="M266.51 75.2837H271.092V77.3717H269.236V79.3437H270.976V81.3737H269.236V83.6937H271.266V85.7817H266.51V75.2837Z" fill="#BABABA"/>
<path d="M272.079 75.2837H273.993C275.269 75.2837 276.139 75.3417 276.603 75.4577C277.067 75.5737 277.415 75.8057 277.705 76.2117C277.995 76.6177 278.111 77.2557 278.111 78.1837C278.111 78.9957 277.995 79.5757 277.821 79.8657C277.589 80.1557 277.241 80.3297 276.603 80.3877C277.125 80.5037 277.531 80.6777 277.705 80.9097C277.879 81.1417 277.995 81.3157 278.053 81.5477C278.111 81.7217 278.111 82.2437 278.111 83.1137V85.8977H275.559V82.4177C275.559 81.8377 275.501 81.4897 275.443 81.3737C275.385 81.2577 275.095 81.1997 274.747 81.1997V85.9557H272.021V75.2837H272.079ZM274.805 77.0817V79.4017C275.095 79.4017 275.327 79.3437 275.443 79.2857C275.559 79.2277 275.617 78.9377 275.617 78.4737V77.8937C275.617 77.5457 275.559 77.3137 275.443 77.2557C275.327 77.1977 275.095 77.0817 274.805 77.0817Z" fill="#BABABA"/>
<path d="M285.767 75.2837L284.201 80.0397L285.941 85.8397H283.099L281.997 81.3157V85.8397H279.271V75.2837H281.997V79.4017L283.215 75.2837H285.767Z" fill="#BABABA"/>
<path d="M288.783 75.2837H291.509C292.379 75.2837 293.017 75.3417 293.481 75.4577C293.945 75.5737 294.293 75.8637 294.583 76.2697C294.873 76.6757 294.989 77.3137 294.989 78.2417C294.989 78.8797 294.873 79.2857 294.699 79.5177C294.525 79.7497 294.119 79.9237 293.539 80.0977C294.177 80.2137 294.583 80.5037 294.815 80.7937C295.047 81.1417 295.163 81.6637 295.163 82.3017V83.2877C295.163 83.9837 295.105 84.5057 294.931 84.8537C294.757 85.2017 294.525 85.4337 294.177 85.5497C293.829 85.6657 293.075 85.7237 291.973 85.7237H288.783V75.2837ZM291.509 77.0817V79.4017C291.625 79.4017 291.741 79.4017 291.799 79.4017C292.089 79.4017 292.263 79.3437 292.321 79.2277C292.379 79.1117 292.437 78.7057 292.437 78.0677C292.437 77.7197 292.379 77.4877 292.321 77.3717C292.263 77.2557 292.205 77.1397 292.089 77.1397C291.973 77.0817 291.799 77.0817 291.509 77.0817ZM291.509 81.0257V83.9837C291.915 83.9837 292.147 83.9257 292.263 83.8097C292.379 83.6937 292.437 83.4617 292.437 82.9977V82.0117C292.437 81.5477 292.379 81.2577 292.321 81.1997C292.147 81.1417 291.915 81.0837 291.509 81.0257Z" fill="#FF6600"/>
<path d="M296.148 75.2837H300.73V77.3717H298.874V79.3437H300.614V81.3737H298.874V83.6937H300.904V85.7817H296.148V75.2837Z" fill="#FF6600"/>
<path d="M311.983 75.2841L310.765 85.8401H307.343C307.053 84.2161 306.763 82.3601 306.531 80.3301C306.415 81.2001 306.183 83.0561 305.777 85.8401H302.355L301.137 75.2841H303.805L304.095 78.9381L304.385 82.4761C304.501 80.6201 304.733 78.2421 305.139 75.2261H307.981C308.039 75.5161 308.097 76.6761 308.271 78.7061L308.561 82.7081C308.735 80.1561 308.967 77.6621 309.315 75.2261H311.983V75.2841Z" fill="#FF6600"/>
<path d="M312.504 75.2837H317.086V77.3717H315.23V79.3437H316.97V81.3737H315.23V83.6937H317.26V85.7817H312.504V75.2837Z" fill="#FF6600"/>
<path d="M324.394 79.17H321.668V78.184C321.668 77.604 321.668 77.198 321.61 77.024C321.552 76.85 321.436 76.792 321.262 76.792C321.088 76.792 320.972 76.85 320.914 76.966C320.856 77.082 320.798 77.43 320.798 77.952V82.998C320.798 83.462 320.856 83.81 320.914 83.926C320.972 84.1 321.088 84.158 321.262 84.158C321.436 84.158 321.61 84.1 321.668 83.926C321.726 83.752 321.784 83.404 321.784 82.94V81.664H321.204V80.04H324.394V85.724H322.654L322.422 84.97C322.248 85.318 322.016 85.55 321.726 85.724C321.436 85.898 321.088 85.956 320.74 85.956C320.276 85.956 319.87 85.84 319.464 85.608C319.058 85.376 318.768 85.086 318.536 84.796C318.304 84.448 318.188 84.1 318.13 83.752C318.072 83.404 318.072 82.824 318.072 82.128V78.996C318.072 78.01 318.13 77.256 318.246 76.792C318.362 76.328 318.652 75.922 319.174 75.516C319.696 75.11 320.334 74.936 321.146 74.936C321.958 74.936 322.596 75.11 323.118 75.458C323.64 75.806 323.988 76.154 324.162 76.618C324.336 77.082 324.394 77.72 324.394 78.59V79.17Z" fill="#FF6600"/>
<path d="M330.949 75.2837V77.3717H329.325V85.7817H326.599V77.3717H324.975V75.2837H330.949Z" fill="#FF6600"/>
<path d="M344.231 75.2841L343.013 85.8401H339.591C339.301 84.2161 339.011 82.3601 338.779 80.3301C338.663 81.2001 338.431 83.0561 338.025 85.8401H334.603L333.385 75.2841H336.053L336.343 78.9381L336.633 82.4761C336.749 80.6201 336.981 78.2421 337.387 75.2261H340.229C340.287 75.5161 340.345 76.6761 340.519 78.7061L340.809 82.7081C340.983 80.1561 341.215 77.6621 341.563 75.2261H344.231V75.2841Z" fill="#FF6600"/>
<path d="M349.392 75.2837L350.958 85.8397H348.174L348 83.9257H347.014L346.84 85.8397H343.998L345.39 75.2837H349.392ZM347.942 82.0697C347.826 80.8517 347.652 79.4017 347.536 77.6617C347.246 79.6917 347.072 81.1417 347.014 82.0697H347.942Z" fill="#FF6600"/>
<path d="M357.223 78.4741H354.671V77.7201C354.671 77.3721 354.613 77.1401 354.555 77.0241C354.497 76.9081 354.381 76.8501 354.207 76.8501C354.033 76.8501 353.917 76.9081 353.859 77.0241C353.801 77.1401 353.743 77.3721 353.743 77.6621C353.743 78.0101 353.801 78.3001 353.859 78.4741C353.975 78.6481 354.207 78.8801 354.613 79.1121C355.831 79.8081 356.585 80.4461 356.933 80.9101C357.281 81.3741 357.397 82.1281 357.397 83.1721C357.397 83.9261 357.281 84.5061 357.107 84.8541C356.933 85.2021 356.585 85.4921 356.063 85.7241C355.541 85.9561 354.961 86.0721 354.323 86.0721C353.569 86.0721 352.989 85.9561 352.467 85.6661C351.945 85.3761 351.597 85.0281 351.423 84.6221C351.249 84.2161 351.191 83.5781 351.191 82.7661V82.0701H353.743V83.3461C353.743 83.7521 353.801 83.9841 353.859 84.1001C353.917 84.2161 354.033 84.2741 354.265 84.2741C354.497 84.2741 354.555 84.2161 354.671 84.0421C354.787 83.8681 354.787 83.6941 354.787 83.4041C354.787 82.7661 354.729 82.3601 354.555 82.1861C354.381 82.0121 353.975 81.6641 353.279 81.2001C352.583 80.7361 352.119 80.4461 351.945 80.2141C351.713 79.9821 351.539 79.7501 351.423 79.3441C351.307 78.9381 351.191 78.5321 351.191 77.9521C351.191 77.1401 351.307 76.5601 351.481 76.1541C351.655 75.7481 352.003 75.5161 352.467 75.2841C352.931 75.0521 353.511 74.9941 354.149 74.9941C354.845 74.9941 355.483 75.1101 355.947 75.3421C356.469 75.5741 356.759 75.8641 356.933 76.2121C357.107 76.5601 357.165 77.1401 357.165 78.0101V78.4741H357.223Z" fill="#FF6600"/>
<path d="M363.429 75.2837V85.8397H360.703V75.2837H363.429Z" fill="#FF6600"/>
<path d="M370.679 75.2837V85.8397H368.301L366.851 81.0257V85.8397H364.531V75.2837H366.851L368.417 80.0397V75.2837H370.679Z" fill="#FF6600"/>
<path d="M374.1 75.2837H378.682V77.3717H376.826V79.3437H378.566V81.3737H376.826V83.6937H378.856V85.7817H374.1V75.2837Z" fill="#FF6600"/>
<path d="M385.875 75.2837V82.3597C385.875 83.1717 385.875 83.6937 385.817 84.0417C385.759 84.3897 385.585 84.6797 385.353 85.0277C385.121 85.3757 384.773 85.6077 384.367 85.7817C383.961 85.9557 383.439 86.0717 382.859 86.0717C382.221 86.0717 381.699 85.9557 381.177 85.7817C380.713 85.5497 380.307 85.3177 380.075 84.9697C379.843 84.6217 379.669 84.2737 379.669 83.9257C379.611 83.5777 379.611 82.7657 379.611 81.6057V75.3417H382.337V83.2297C382.337 83.6937 382.337 83.9837 382.395 84.0997C382.453 84.2157 382.569 84.2737 382.685 84.2737C382.859 84.2737 382.975 84.2157 383.033 84.0417C383.091 83.9257 383.091 83.5777 383.091 83.0557V75.2837H385.875Z" fill="#FF6600"/>
<path d="M386.919 75.2837H388.833C390.109 75.2837 390.979 75.3417 391.443 75.4577C391.907 75.5737 392.255 75.8057 392.545 76.2117C392.835 76.6177 392.951 77.2557 392.951 78.1837C392.951 78.9957 392.835 79.5757 392.661 79.8657C392.429 80.1557 392.081 80.3297 391.443 80.3877C391.965 80.5037 392.371 80.6777 392.545 80.9097C392.719 81.1417 392.835 81.3157 392.893 81.5477C392.951 81.7217 392.951 82.2437 392.951 83.1137V85.8977H390.399V82.4177C390.399 81.8377 390.341 81.4897 390.283 81.3737C390.225 81.2577 389.935 81.1997 389.587 81.1997V85.9557H386.861V75.2837H386.919ZM389.703 77.0817V79.4017C389.993 79.4017 390.225 79.3437 390.341 79.2857C390.457 79.2277 390.515 78.9377 390.515 78.4737V77.8937C390.515 77.5457 390.457 77.3137 390.341 77.2557C390.225 77.1977 389.993 77.0817 389.703 77.0817Z" fill="#FF6600"/>
<path d="M394.111 75.2837H398.693V77.3717H396.837V79.3437H398.577V81.3737H396.837V83.6937H398.867V85.7817H394.111V75.2837Z" fill="#FF6600"/>
<path d="M399.679 75.2837H401.593C402.869 75.2837 403.739 75.3417 404.203 75.4577C404.667 75.5737 405.015 75.8057 405.305 76.2117C405.595 76.6177 405.711 77.2557 405.711 78.1837C405.711 78.9957 405.595 79.5757 405.421 79.8657C405.189 80.1557 404.841 80.3297 404.203 80.3877C404.725 80.5037 405.131 80.6777 405.305 80.9097C405.479 81.1417 405.595 81.3157 405.653 81.5477C405.711 81.7217 405.711 82.2437 405.711 83.1137V85.8977H403.159V82.4177C403.159 81.8377 403.101 81.4897 403.043 81.3737C402.985 81.2577 402.695 81.1997 402.347 81.1997V85.9557H399.621V75.2837H399.679ZM402.405 77.0817V79.4017C402.695 79.4017 402.927 79.3437 403.043 79.2857C403.159 79.2277 403.217 78.9377 403.217 78.4737V77.8937C403.217 77.5457 403.159 77.3137 403.043 77.2557C402.927 77.1977 402.753 77.0817 402.405 77.0817Z" fill="#FF6600"/>
<path d="M414.991 78.4741H412.439V77.7201C412.439 77.3721 412.381 77.1401 412.323 77.0241C412.265 76.9081 412.149 76.8501 411.975 76.8501C411.801 76.8501 411.685 76.9081 411.627 77.0241C411.569 77.1401 411.511 77.3721 411.511 77.6621C411.511 78.0101 411.569 78.3001 411.627 78.4741C411.743 78.6481 411.975 78.8801 412.381 79.1121C413.599 79.8081 414.353 80.4461 414.701 80.9101C415.049 81.3741 415.165 82.1281 415.165 83.1721C415.165 83.9261 415.049 84.5061 414.875 84.8541C414.701 85.2021 414.353 85.4921 413.831 85.7241C413.309 85.9561 412.729 86.0721 412.091 86.0721C411.337 86.0721 410.757 85.9561 410.235 85.6661C409.713 85.3761 409.365 85.0281 409.191 84.6221C409.017 84.2161 408.959 83.5781 408.959 82.7661V82.0701H411.511V83.3461C411.511 83.7521 411.569 83.9841 411.627 84.1001C411.685 84.2161 411.801 84.2741 412.033 84.2741C412.265 84.2741 412.323 84.2161 412.439 84.0421C412.555 83.8681 412.555 83.6941 412.555 83.4041C412.555 82.7661 412.497 82.3601 412.323 82.1861C412.149 82.0121 411.743 81.6641 411.047 81.2001C410.351 80.7361 409.887 80.4461 409.713 80.2141C409.481 79.9821 409.307 79.7501 409.191 79.3441C409.075 78.9381 408.959 78.5321 408.959 77.9521C408.959 77.1401 409.075 76.5601 409.249 76.1541C409.423 75.7481 409.771 75.5161 410.235 75.2841C410.699 75.0521 411.279 74.9941 411.917 74.9941C412.613 74.9941 413.251 75.1101 413.715 75.3421C414.237 75.5741 414.527 75.8641 414.701 76.2121C414.875 76.5601 414.933 77.1401 414.933 78.0101V78.4741H414.991Z" fill="#FF6600"/>
<path d="M421.603 75.2837V77.3717H419.979V85.7817H417.253V77.3717H415.629V75.2837H421.603Z" fill="#FF6600"/>
<path d="M426.474 75.2837L428.04 85.8397H425.256L425.082 83.9257H424.096L423.922 85.8397H421.08L422.472 75.2837H426.474ZM425.024 82.0697C424.908 80.8517 424.734 79.4017 424.618 77.6617C424.328 79.6917 424.154 81.1417 424.096 82.0697H425.024Z" fill="#FF6600"/>
<path d="M428.504 75.2837H430.534C431.868 75.2837 432.738 75.3417 433.202 75.4577C433.666 75.5737 434.014 75.8057 434.246 76.0377C434.478 76.3277 434.652 76.6177 434.71 76.9657C434.768 77.3137 434.826 77.9517 434.826 78.9957V82.7077C434.826 83.6357 434.768 84.2737 434.71 84.6217C434.594 84.9117 434.478 85.2017 434.246 85.3757C434.014 85.5497 433.724 85.6657 433.434 85.7817C433.086 85.8397 432.622 85.8977 431.984 85.8977H428.504V75.2837ZM431.23 77.0817V84.0417C431.636 84.0417 431.868 83.9837 431.984 83.8097C432.1 83.6357 432.1 83.2297 432.1 82.5337V78.4157C432.1 77.9517 432.1 77.6037 432.042 77.4877C431.984 77.3717 431.926 77.2557 431.81 77.1977C431.752 77.0817 431.52 77.0817 431.23 77.0817Z" fill="#FF6600"/>
<path d="M441.38 75.2837V77.3717H439.756V85.7817H437.03V77.3717H435.406V75.2837H441.38Z" fill="#FF6600"/>
<path d="M444.803 75.2837L444.397 83.2297H442.367L441.961 75.2837H444.803ZM444.629 83.6937V85.7817H442.193V83.6937H444.629Z" fill="#FF6600"/>
<path d="M434.07 67.5117H444.626V70.2377H434.07V67.5117Z" fill="#BABABA"/>
<path d="M437.261 60.61V63.162H436.507C436.159 63.162 435.927 63.22 435.811 63.278C435.695 63.336 435.637 63.452 435.637 63.626C435.637 63.8 435.695 63.916 435.811 63.974C435.927 64.032 436.159 64.09 436.449 64.09C436.797 64.09 437.087 64.032 437.261 63.974C437.435 63.858 437.667 63.626 437.899 63.22C438.595 62.002 439.233 61.248 439.697 60.9C440.161 60.552 440.915 60.436 441.959 60.436C442.713 60.436 443.293 60.552 443.641 60.726C443.989 60.9 444.279 61.248 444.511 61.77C444.743 62.292 444.859 62.872 444.859 63.51C444.859 64.264 444.743 64.844 444.453 65.366C444.163 65.888 443.815 66.236 443.409 66.41C443.003 66.584 442.365 66.642 441.553 66.642H440.857V64.09H442.133C442.539 64.09 442.771 64.032 442.887 63.974C443.003 63.916 443.061 63.8 443.061 63.568C443.061 63.336 443.003 63.278 442.829 63.162C442.713 63.046 442.481 63.046 442.191 63.046C441.553 63.046 441.147 63.104 440.973 63.278C440.799 63.452 440.451 63.858 439.987 64.554C439.523 65.25 439.233 65.714 439.001 65.888C438.769 66.062 438.537 66.294 438.131 66.41C437.783 66.584 437.319 66.642 436.739 66.642C435.927 66.642 435.347 66.526 434.941 66.352C434.593 66.12 434.303 65.83 434.071 65.366C433.839 64.902 433.781 64.322 433.781 63.684C433.781 62.988 433.897 62.35 434.129 61.886C434.361 61.364 434.651 61.074 434.999 60.9C435.347 60.726 435.927 60.668 436.797 60.668H437.261V60.61Z" fill="#BABABA"/>
<path d="M434.07 59.508V54.926H436.158V56.782H438.13V55.042H440.16V56.782H442.48V54.752H444.568V59.508H434.07Z" fill="#BABABA"/>
<path d="M434.07 53.9978V52.0838C434.07 50.8078 434.128 49.9378 434.244 49.4738C434.36 49.0098 434.592 48.6618 434.998 48.3718C435.404 48.0818 436.042 47.9658 436.97 47.9658C437.782 47.9658 438.362 48.0818 438.652 48.2558C438.942 48.4298 439.116 48.8358 439.174 49.4738C439.29 48.9518 439.464 48.5458 439.696 48.3718C439.928 48.1978 440.102 48.0818 440.334 48.0238C440.508 47.9658 441.03 47.9658 441.9 47.9658H444.684V50.5178H441.204C440.624 50.5178 440.276 50.5758 440.16 50.6338C440.044 50.7498 439.986 50.9818 439.986 51.3298H444.742V54.0558H434.07V53.9978ZM435.868 51.2718H438.188C438.188 50.9818 438.13 50.7498 438.072 50.6338C438.014 50.5178 437.724 50.4598 437.26 50.4598H436.68C436.332 50.4598 436.1 50.5178 436.042 50.6338C435.926 50.6918 435.868 50.9238 435.868 51.2718Z" fill="#BABABA"/>
<path d="M434.072 44.08H442.482V42.3979H444.57V46.8059H434.014V44.08H434.072Z" fill="#BABABA"/>
<path d="M440.22 35.6699C441.264 35.6699 442.018 35.6699 442.482 35.7279C442.946 35.7859 443.352 35.9599 443.7 36.1919C444.048 36.4819 444.338 36.8299 444.512 37.2359C444.686 37.6419 444.802 38.2219 444.802 38.8019C444.802 39.3819 444.686 39.8459 444.512 40.3099C444.338 40.7739 444.048 41.1219 443.7 41.4119C443.352 41.7019 442.946 41.8759 442.482 41.8759C442.018 41.8759 441.264 41.9339 440.22 41.9339H438.422C437.378 41.9339 436.624 41.9339 436.16 41.8759C435.696 41.8179 435.29 41.6439 434.942 41.4119C434.594 41.1219 434.304 40.7739 434.13 40.3679C433.956 39.9619 433.84 39.4399 433.84 38.8599C433.84 38.2799 433.956 37.8159 434.13 37.3519C434.304 36.8879 434.594 36.5399 434.942 36.2499C435.29 35.9599 435.696 35.7859 436.16 35.7859C436.624 35.7859 437.378 35.7279 438.422 35.7279H440.22V35.6699ZM436.798 38.3959C436.334 38.3959 435.986 38.3959 435.87 38.4539C435.754 38.5119 435.638 38.6279 435.638 38.8019C435.638 38.9179 435.696 39.0339 435.812 39.1499C435.928 39.2079 436.276 39.2659 436.798 39.2659H441.728C442.366 39.2659 442.714 39.2659 442.888 39.2079C443.004 39.1499 443.12 39.0339 443.12 38.8599C443.12 38.6859 443.062 38.5699 442.888 38.5119C442.714 38.4539 442.308 38.4539 441.728 38.4539H436.798V38.3959Z" fill="#BABABA"/>
<path d="M434.07 28.3618H444.626V31.0878H440.218V31.8998H444.626V34.6258H434.07V31.8998H437.84V31.0878H434.07V28.3618Z" fill="#BABABA"/>
<path d="M434.07 21.1118H444.626V23.4898L439.812 24.9398H444.626V27.2598H434.07V24.9398L438.826 23.3738H434.07V21.1118Z" fill="#BABABA"/>
<path d="M434.07 17.6896V13.1076H436.158V14.9636H438.13V13.2236H440.16V14.9636H442.48V12.9336H444.568V17.6896H434.07Z" fill="#BABABA"/>
<path d="M442.48 10.4399H444.626V12.4119H442.48V10.4399Z" fill="#BABABA"/>
<path d="M434.07 3.13184L444.626 4.52384V8.69984L434.07 10.2658V7.36584C436.97 7.01784 439.406 6.78584 441.436 6.66984C439.406 6.55384 437.608 6.37984 436.042 6.20584L434.07 6.03184V3.13184Z" fill="#BABABA"/>
<path d="M442.48 1.50781H444.626V3.47981H442.48V1.50781Z" fill="#BABABA"/>
</g>
<defs>
<clipPath id="clip0_371_3787">
<rect width="464" height="87" fill="white"/>
</clipPath>
</defs>
</svg>
