<svg xmlns="http://www.w3.org/2000/svg" viewBox="0 0 400 300" fill="none">
  <rect width="400" height="300" rx="16" fill="#0d1f30"/>
  <rect x="100" y="70" width="200" height="130" rx="10" stroke="#1B98E0" stroke-width="1.5" fill="rgba(27,152,224,0.04)"/>
  <circle cx="200" cy="125" r="30" stroke="rgba(27,152,224,0.3)" stroke-width="1.5" fill="rgba(27,152,224,0.06)"/>
  <polygon points="192,112 192,138 214,125" fill="rgba(27,152,224,0.5)"/>
  <rect x="110" y="168" width="180" height="6" rx="3" fill="rgba(27,152,224,0.12)"/>
  <rect x="110" y="168" width="120" height="6" rx="3" fill="rgba(27,152,224,0.3)"/>
  <rect x="110" y="180" width="80" height="4" rx="2" fill="rgba(255,255,255,0.06)"/>
  <rect x="110" y="188" width="60" height="4" rx="2" fill="rgba(255,255,255,0.04)"/>
  <rect x="50" y="130" width="35" height="70" rx="6" stroke="rgba(255,255,255,0.06)" stroke-width="1" fill="rgba(27,152,224,0.03)"/>
  <rect x="56" y="138" width="23" height="30" rx="3" fill="rgba(27,152,224,0.08)"/>
  <rect x="56" y="174" width="18" height="3" rx="1.5" fill="rgba(255,255,255,0.06)"/>
  <rect x="56" y="181" width="14" height="3" rx="1.5" fill="rgba(255,255,255,0.04)"/>
  <rect x="315" y="110" width="35" height="70" rx="6" stroke="rgba(255,255,255,0.06)" stroke-width="1" fill="rgba(27,152,224,0.03)"/>
  <rect x="321" y="118" width="23" height="30" rx="3" fill="rgba(27,152,224,0.08)"/>
  <rect x="321" y="154" width="18" height="3" rx="1.5" fill="rgba(255,255,255,0.06)"/>
  <rect x="321" y="161" width="14" height="3" rx="1.5" fill="rgba(255,255,255,0.04)"/>
  <circle cx="70" cy="55" r="15" fill="rgba(27,152,224,0.04)"/>
  <circle cx="340" cy="250" r="25" fill="rgba(27,152,224,0.03)"/>
  <text x="200" y="270" text-anchor="middle" fill="rgba(255,255,255,0.2)" font-size="11" font-family="system-ui">Content Produktion</text>
</svg>
