<svg xmlns="http://www.w3.org/2000/svg" viewBox="0 0 400 300" fill="none">
  <rect width="400" height="300" rx="16" fill="#0d1f30"/>
  <path d="M80 220 L140 170 L200 140 L260 100 L320 70" stroke="#1B98E0" stroke-width="2" fill="none" stroke-linecap="round"/>
  <path d="M80 220 L140 170 L200 140 L260 100 L320 70 L320 220 L80 220Z" fill="url(#cg)"/>
  <defs><linearGradient id="cg" x1="200" y1="70" x2="200" y2="220"><stop stop-color="rgba(27,152,224,0.15)"/><stop offset="1" stop-color="rgba(27,152,224,0)"/></linearGradient></defs>
  <circle cx="140" cy="170" r="4" fill="#1B98E0"/>
  <circle cx="200" cy="140" r="4" fill="#1B98E0"/>
  <circle cx="260" cy="100" r="4" fill="#1B98E0"/>
  <circle cx="320" cy="70" r="5" fill="#1B98E0"/>
  <rect x="90" y="60" width="70" height="50" rx="8" stroke="rgba(255,255,255,0.08)" stroke-width="1" fill="rgba(27,152,224,0.04)"/>
  <circle cx="110" cy="78" r="8" stroke="rgba(27,152,224,0.3)" stroke-width="1" fill="none"/>
  <rect x="124" y="74" width="28" height="4" rx="2" fill="rgba(255,255,255,0.08)"/>
  <rect x="124" y="84" width="20" height="3" rx="1.5" fill="rgba(255,255,255,0.05)"/>
  <path d="M320 70 L340 55" stroke="rgba(27,152,224,0.5)" stroke-width="1"/>
  <polygon points="340,50 345,60 335,60" fill="rgba(27,152,224,0.4)"/>
  <circle cx="50" cy="250" r="20" fill="rgba(27,152,224,0.04)"/>
  <circle cx="360" cy="250" r="25" fill="rgba(27,152,224,0.03)"/>
  <text x="200" y="270" text-anchor="middle" fill="rgba(255,255,255,0.2)" font-size="11" font-family="system-ui">Neukundengewinnung</text>
</svg>
