<svg xmlns="http://www.w3.org/2000/svg" viewBox="0 0 400 300" fill="none">
  <rect width="400" height="300" rx="16" fill="#0d1f30"/>
  <rect x="120" y="60" width="160" height="120" rx="10" stroke="#1B98E0" stroke-width="1.5" fill="rgba(27,152,224,0.04)"/>
  <rect x="130" y="70" width="140" height="80" rx="6" fill="rgba(27,152,224,0.06)"/>
  <rect x="140" y="80" width="50" height="50" rx="4" fill="rgba(27,152,224,0.1)"/>
  <rect x="200" y="80" width="60" height="6" rx="3" fill="rgba(255,255,255,0.1)"/>
  <rect x="200" y="94" width="45" height="5" rx="2.5" fill="rgba(255,255,255,0.06)"/>
  <rect x="200" y="110" width="30" height="14" rx="7" fill="rgba(27,152,224,0.2)" stroke="rgba(27,152,224,0.3)" stroke-width="1"/>
  <rect x="130" y="158" width="140" height="14" rx="7" fill="rgba(27,152,224,0.12)"/>
  <circle cx="80" cy="130" r="25" stroke="rgba(255,255,255,0.06)" stroke-width="1" fill="rgba(27,152,224,0.03)"/>
  <path d="M72 130 L80 138 L92 122" stroke="rgba(27,152,224,0.4)" stroke-width="1.5" fill="none" stroke-linecap="round"/>
  <rect x="310" y="90" width="50" height="60" rx="6" stroke="rgba(255,255,255,0.06)" stroke-width="1" fill="rgba(27,152,224,0.03)"/>
  <rect x="318" y="100" width="34" height="24" rx="3" fill="rgba(27,152,224,0.08)"/>
  <rect x="318" y="132" width="20" height="4" rx="2" fill="rgba(255,255,255,0.06)"/>
  <rect x="318" y="140" width="28" height="4" rx="2" fill="rgba(255,255,255,0.04)"/>
  <path d="M160 210 L200 200 L240 215 L280 195" stroke="rgba(27,152,224,0.25)" stroke-width="1" fill="none" stroke-dasharray="4 3"/>
  <circle cx="50" cy="60" r="25" fill="rgba(27,152,224,0.04)"/>
  <circle cx="350" cy="240" r="30" fill="rgba(27,152,224,0.03)"/>
  <text x="200" y="270" text-anchor="middle" fill="rgba(255,255,255,0.2)" font-size="11" font-family="system-ui">E-Commerce</text>
</svg>
