<svg xmlns="http://www.w3.org/2000/svg" viewBox="0 0 400 300" fill="none">
  <rect width="400" height="300" rx="16" fill="#0d1f30"/>
  <circle cx="200" cy="110" r="40" stroke="#1B98E0" stroke-width="2" fill="rgba(27,152,224,0.08)"/>
  <path d="M200 85 L200 135" stroke="#1B98E0" stroke-width="1.5" stroke-linecap="round" opacity="0.3"/>
  <path d="M175 110 L225 110" stroke="#1B98E0" stroke-width="1.5" stroke-linecap="round" opacity="0.3"/>
  <circle cx="200" cy="105" r="12" stroke="#1B98E0" stroke-width="1.5" fill="none"/>
  <path d="M188 125 Q200 140 212 125" stroke="#1B98E0" stroke-width="1.5" fill="none"/>
  <circle cx="120" cy="150" r="24" stroke="rgba(255,255,255,0.1)" stroke-width="1" fill="rgba(27,152,224,0.04)"/>
  <circle cx="280" cy="150" r="24" stroke="rgba(255,255,255,0.1)" stroke-width="1" fill="rgba(27,152,224,0.04)"/>
  <path d="M144 150 L176 130" stroke="rgba(27,152,224,0.3)" stroke-width="1" stroke-dasharray="4 4"/>
  <path d="M256 150 L224 130" stroke="rgba(27,152,224,0.3)" stroke-width="1" stroke-dasharray="4 4"/>
  <rect x="140" y="190" width="120" height="8" rx="4" fill="rgba(27,152,224,0.15)"/>
  <rect x="140" y="190" width="80" height="8" rx="4" fill="rgba(27,152,224,0.4)"/>
  <rect x="160" y="210" width="80" height="6" rx="3" fill="rgba(255,255,255,0.06)"/>
  <rect x="160" y="225" width="60" height="6" rx="3" fill="rgba(255,255,255,0.04)"/>
  <circle cx="60" cy="60" r="30" fill="rgba(27,152,224,0.05)"/>
  <circle cx="340" cy="240" r="40" fill="rgba(27,152,224,0.03)"/>
  <text x="200" y="270" text-anchor="middle" fill="rgba(255,255,255,0.2)" font-size="11" font-family="system-ui">Performance Recruiting</text>
</svg>
