<svg xmlns="http://www.w3.org/2000/svg" viewBox="0 0 400 300" fill="none">
  <rect width="400" height="300" rx="16" fill="#0d1f30"/>
  <rect x="80" y="60" width="240" height="150" rx="10" stroke="#1B98E0" stroke-width="1.5" fill="rgba(27,152,224,0.04)"/>
  <rect x="80" y="60" width="240" height="24" rx="10" fill="rgba(27,152,224,0.06)"/>
  <circle cx="98" cy="72" r="4" fill="rgba(239,68,68,0.4)"/>
  <circle cx="112" cy="72" r="4" fill="rgba(245,158,11,0.4)"/>
  <circle cx="126" cy="72" r="4" fill="rgba(16,185,129,0.4)"/>
  <rect x="150" y="68" width="100" height="8" rx="4" fill="rgba(255,255,255,0.05)"/>
  <rect x="95" y="95" width="60" height="5" rx="2.5" fill="rgba(27,152,224,0.25)"/>
  <rect x="110" y="107" width="90" height="4" rx="2" fill="rgba(255,255,255,0.08)"/>
  <rect x="110" y="117" width="70" height="4" rx="2" fill="rgba(27,152,224,0.15)"/>
  <rect x="110" y="127" width="100" height="4" rx="2" fill="rgba(255,255,255,0.06)"/>
  <rect x="95" y="140" width="45" height="5" rx="2.5" fill="rgba(27,152,224,0.2)"/>
  <rect x="110" y="152" width="80" height="4" rx="2" fill="rgba(255,255,255,0.07)"/>
  <rect x="110" y="162" width="60" height="4" rx="2" fill="rgba(27,152,224,0.12)"/>
  <rect x="110" y="172" width="90" height="4" rx="2" fill="rgba(255,255,255,0.05)"/>
  <rect x="110" y="182" width="40" height="4" rx="2" fill="rgba(27,152,224,0.1)"/>
  <rect x="230" y="95" width="80" height="95" rx="6" fill="rgba(27,152,224,0.04)" stroke="rgba(255,255,255,0.06)" stroke-width="1"/>
  <rect x="238" y="103" width="64" height="35" rx="4" fill="rgba(27,152,224,0.1)"/>
  <rect x="238" y="145" width="40" height="4" rx="2" fill="rgba(255,255,255,0.08)"/>
  <rect x="238" y="155" width="55" height="4" rx="2" fill="rgba(255,255,255,0.05)"/>
  <rect x="238" y="165" width="35" height="12" rx="6" fill="rgba(27,152,224,0.2)"/>
  <rect x="150" y="220" width="100" height="10" rx="5" fill="rgba(255,255,255,0.04)"/>
  <circle cx="50" cy="240" r="20" fill="rgba(27,152,224,0.04)"/>
  <circle cx="360" cy="50" r="15" fill="rgba(27,152,224,0.03)"/>
  <text x="200" y="270" text-anchor="middle" fill="rgba(255,255,255,0.2)" font-size="11" font-family="system-ui">Webentwicklung</text>
</svg>
